<?xml version="1.0" encoding="UTF-8" standalone="no"?>
<!-- Generator: Adobe Illustrator 19.0.0, SVG Export Plug-In . SVG Version: 6.00 Build 0)  -->

<svg
   xmlns:dc="http://purl.org/dc/elements/1.1/"
   xmlns:cc="http://creativecommons.org/ns#"
   xmlns:rdf="http://www.w3.org/1999/02/22-rdf-syntax-ns#"
   xmlns:svg="http://www.w3.org/2000/svg"
   xmlns="http://www.w3.org/2000/svg"
   xmlns:sodipodi="http://sodipodi.sourceforge.net/DTD/sodipodi-0.dtd"
   xmlns:inkscape="http://www.inkscape.org/namespaces/inkscape"
   version="1.1"
   id="Layer_1"
   x="0px"
   y="0px"
   viewBox="0 0 280.3 242.7"
   enable-background="new 0 0 280.3 242.7"
   xml:space="preserve"
   sodipodi:docname="devpost-logo.svg"
   inkscape:version="0.92.5 (2060ec1f9f, 2020-04-08)"><metadata
   id="metadata10"><rdf:RDF><cc:Work
       rdf:about=""><dc:format>image/svg+xml</dc:format><dc:type
         rdf:resource="http://purl.org/dc/dcmitype/StillImage" /></cc:Work></rdf:RDF></metadata><defs
   id="defs8"><clipPath
     clipPathUnits="userSpaceOnUse"
     id="clipPath862"><path
       id="path864"
       d="m 132.7,195 h -44 V 47.7 h 46.1 c 42.1,0 73.3,19.8 73.3,73.7 0,51.8 -37.5,73.6 -75.4,73.6 z m 1,-118.7 h -15.6 v 90.1 h 14.5 c 30.9,0 45.1,-18.1 45.1,-45.1 0.1,-30 -12.8,-45 -44,-45 z"
       inkscape:connector-curvature="0"
       style="fill:#ffffff" /></clipPath></defs><sodipodi:namedview
   pagecolor="#ffffff"
   bordercolor="#666666"
   borderopacity="1"
   objecttolerance="10"
   gridtolerance="10"
   guidetolerance="10"
   inkscape:pageopacity="0"
   inkscape:pageshadow="2"
   inkscape:window-width="1831"
   inkscape:window-height="1048"
   id="namedview6"
   showgrid="false"
   inkscape:zoom="2.7503453"
   inkscape:cx="131.23084"
   inkscape:cy="121.73342"
   inkscape:window-x="1680"
   inkscape:window-y="27"
   inkscape:window-maximized="0"
   inkscape:current-layer="Layer_1" />

<path
   style="opacity:0.78800001;fill:#000000;fill-opacity:0.61352659;stroke:#000000;stroke-width:0.36359072;stroke-opacity:1"
   d="M 35.195349,181.95062 0.2014563,121.39845 35.098964,60.964889 69.996472,0.5313252 140.11489,0.44507541 210.23331,0.35882562 245.04712,60.668079 c 19.14759,33.170086 34.80519,60.532741 34.79466,60.805891 -0.0105,0.27316 -15.67977,27.57507 -34.82052,60.67091 l -34.80137,60.17427 -70.01533,0.0918 -70.01532,0.0918 z m 110.137011,12.42555 c 11.06762,-1.5988 22.33936,-5.39733 30.36318,-10.23228 17.78243,-10.71523 28.33637,-27.1876 31.693,-49.46577 0.89932,-5.96877 0.89387,-21.58931 -0.01,-28.1601 -2.18319,-15.874254 -6.9681,-27.59408 -15.27916,-37.423668 -8.05146,-9.522571 -20.75849,-16.4786 -35.52868,-19.448972 -8.75482,-1.760648 -8.97737,-1.771596 -39.14412,-1.925562 L 88.612207,47.572749 v 73.857931 73.85793 l 26.269433,-0.15421 c 21.97116,-0.12898 26.95358,-0.25305 30.45072,-0.75823 z"
   id="path4520"
   inkscape:connector-curvature="0" /><path
   style="opacity:0.78800001;fill:#000000;fill-opacity:0.61352659;stroke:#000000;stroke-width:0.36359072;stroke-opacity:1"
   d="m 69.773471,241.59196 c -0.434691,-0.49993 -0.70585,-0.90897 -0.602572,-0.90897 0.178116,0 -0.871414,-1.79582 -1.274956,-2.18155 -0.104609,-0.1 -0.675304,-1.12258 -1.268215,-2.27244 -0.592908,-1.14985 -1.206467,-2.09065 -1.363465,-2.09065 -0.156995,0 -0.256892,-0.12271 -0.221994,-0.27269 0.08918,-0.38325 -0.85818,-2.27244 -1.139545,-2.27244 -0.1277,0 -0.439261,-0.57266 -0.692353,-1.27257 -0.253092,-0.69991 -0.613192,-1.27257 -0.800223,-1.27257 -0.187031,0 -0.340055,-0.23373 -0.340055,-0.51941 0,-0.28568 -0.286328,-0.80574 -0.636284,-1.1557 -0.349956,-0.34995 -0.580251,-0.64797 -0.511765,-0.66225 0.260906,-0.0544 -0.801619,-2.02572 -1.091859,-2.02572 -0.167874,0 -0.270468,-0.12272 -0.227982,-0.2727 0.08055,-0.28434 -0.752001,-1.9563 -1.131549,-2.27244 -0.120047,-0.1 -0.703374,-1.12259 -1.296285,-2.27244 -0.592907,-1.14986 -1.206466,-2.09065 -1.363465,-2.09065 -0.156995,0 -0.250685,-0.12271 -0.208199,-0.27269 0.08055,-0.28434 -0.752,-1.95631 -1.131549,-2.27244 -0.120047,-0.1 -0.703374,-1.12259 -1.296285,-2.27244 -0.592907,-1.14986 -1.206466,-2.09065 -1.363465,-2.09065 -0.156994,0 -0.256891,-0.12271 -0.221994,-0.27269 0.101704,-0.43709 -0.877649,-2.27245 -1.212586,-2.27245 -0.167873,0 -0.270467,-0.12271 -0.227982,-0.27269 0.08055,-0.28434 -0.752,-1.95631 -1.131549,-2.27244 -0.120046,-0.1 -0.703373,-1.12259 -1.296284,-2.27244 -0.592907,-1.14986 -1.206467,-2.09065 -1.363465,-2.09065 -0.156995,0 -0.250685,-0.12271 -0.2082,-0.27269 0.08055,-0.28434 -0.752,-1.95631 -1.131548,-2.27244 -0.120047,-0.1 -0.703374,-1.12259 -1.296285,-2.27245 -0.592907,-1.14985 -1.206467,-2.09064 -1.363465,-2.09064 -0.156995,0 -0.256891,-0.12271 -0.221994,-0.2727 0.08918,-0.38325 -0.858179,-2.27244 -1.139544,-2.27244 -0.1277,0 -0.439261,-0.57265 -0.692353,-1.27256 -0.253092,-0.69992 -0.613192,-1.27257 -0.800223,-1.27257 -0.187031,0 -0.340056,-0.23374 -0.340056,-0.51942 0,-0.28568 -0.251266,-0.77068 -0.55837,-1.07779 -0.307107,-0.3071 -0.574673,-0.68692 -0.594598,-0.84405 -0.08205,-0.64705 -0.80303,-1.92183 -1.08694,-1.92183 -0.167873,0 -0.270468,-0.12271 -0.227982,-0.27269 0.08055,-0.28435 -0.752,-1.95631 -1.13155,-2.27245 -0.120044,-0.1 -0.703371,-1.12258 -1.296281,-2.27244 -0.592911,-1.14985 -1.20647,-2.09064 -1.363466,-2.09064 -0.156995,0 -0.256893,-0.12272 -0.221995,-0.2727 0.08918,-0.38325 -0.858181,-2.27244 -1.139543,-2.27244 -0.127704,0 -0.439263,-0.57265 -0.692355,-1.27257 -0.253091,-0.69991 -0.613191,-1.27256 -0.800222,-1.27256 -0.187031,0 -0.340056,-0.23374 -0.340056,-0.51942 0,-0.28568 -0.286328,-0.80574 -0.636284,-1.1557 -0.349956,-0.34995 -0.58025,-0.64797 -0.511765,-0.66225 0.260907,-0.0544 -0.80162,-2.02572 -1.091857,-2.02572 -0.167876,0 -0.270469,-0.12271 -0.227984,-0.2727 0.08055,-0.28434 -0.752,-1.9563 -1.131551,-2.27244 -0.120044,-0.1 -0.70337,-1.12258 -1.296281,-2.27244 -0.59291,-1.14986 -1.20647,-2.09065 -1.363465,-2.09065 -0.156995,0 -0.250686,-0.12271 -0.2082,-0.27269 0.08055,-0.28434 -0.752001,-1.95631 -1.131551,-2.27244 -0.120045,-0.1 -0.703371,-1.12259 -1.296282,-2.27244 -0.59291,-1.14986 -1.20647,-2.09065 -1.363465,-2.09065 -0.156995,0 -0.256893,-0.12271 -0.221995,-0.27269 0.101703,-0.43709 -0.877649,-2.27244 -1.212585,-2.27244 -0.167876,0 -0.270468,-0.12272 -0.227983,-0.2727 0.08055,-0.28434 -0.752001,-1.9563 -1.131551,-2.27244 -0.120044,-0.1 -0.703371,-1.12259 -1.296281,-2.27244 -0.592911,-1.14986 -1.20647,-2.09065 -1.363465,-2.09065 -0.156996,0 -0.250686,-0.12271 -0.208201,-0.27269 0.08055,-0.28434 -0.752001,-1.95631 -1.131551,-2.27244 -0.120044,-0.1 -0.70337,-1.12259 -1.296281,-2.27244 -0.592911,-1.14986 -1.20647,-2.09065 -1.3634652,-2.09065 -0.1569952,0 -0.2568932,-0.12271 -0.221995,-0.27269 0.1017032,-0.4371 -0.8776491,-2.27245 -1.2125848,-2.27245 -0.167876,0 -0.2766762,-0.12271 -0.241778,-0.27269 0.1017032,-0.43709 -0.8776491,-2.27244 -1.2125848,-2.27244 -0.1678761,0 -0.305229,-0.23374 -0.305229,-0.51942 0,-0.28568 -0.2162067,-0.73562 -0.4804593,-0.99987 -0.2642523,-0.26425 -0.4945466,-0.56227 -0.5117652,-0.66226 -0.1009284,-0.58609 -0.9845804,-2.18154 -1.2082654,-2.18154 -0.1461969,0 -0.3656035,-0.3976 -0.48757,-0.88355 -0.1219669,-0.48595 -0.4260316,-1.10518 -0.6756999,-1.37606 -0.2496686,-0.27089 -0.9390513,-1.42764 -1.5319618,-2.57057 -0.5929106,-1.14292 -1.17165174,-2.07804 -1.28609151,-2.07804 -0.11443974,0 -0.23272187,-0.32723 -0.26284918,-0.72718 -0.0301275,-0.39995 0.0880799,-0.72719 0.26268254,-0.72719 0.1746027,0 0.52453435,-0.57265 0.77762585,-1.27256 0.2530915,-0.69992 0.5646508,-1.27257 0.6923541,-1.27257 0.2813618,0 1.2287198,-1.88919 1.1395437,-2.27244 -0.034898,-0.14998 0.065,-0.2727 0.221995,-0.2727 0.1569952,0 0.7705545,-0.93512 1.3634652,-2.07804 0.5929106,-1.14293 1.2822931,-2.29968 1.5319618,-2.57056 0.2496683,-0.27089 0.553733,-0.89012 0.6756999,-1.37607 0.1219665,-0.48595 0.3413731,-0.88355 0.48757,-0.88355 0.3059598,0 1.2682248,-1.86392 1.1731687,-2.27244 -0.034897,-0.14998 0.065,-0.27269 0.221995,-0.27269 0.1569952,0 0.7705545,-0.9408 1.3634653,-2.09065 0.592911,-1.14986 1.176237,-2.17246 1.296281,-2.27244 0.37955,-0.31614 1.212096,-1.988102 1.131551,-2.272445 -0.04249,-0.149981 0.06011,-0.272693 0.227983,-0.272693 0.290238,0 1.352764,-1.971301 1.091858,-2.02572 -0.06849,-0.01429 0.161809,-0.312299 0.511765,-0.662255 0.349956,-0.349956 0.636283,-0.870018 0.636283,-1.155699 0,-0.285676 0.153026,-0.519414 0.340057,-0.519414 0.187031,0 0.547131,-0.572656 0.800222,-1.272568 0.253092,-0.699912 0.564651,-1.272567 0.692354,-1.272567 0.281362,0 1.22872,-1.889192 1.139544,-2.272442 -0.0349,-0.149981 0.065,-0.272693 0.221995,-0.272693 0.156995,0 0.770555,-0.935123 1.363465,-2.078048 0.592911,-1.14293 1.282293,-2.299679 1.531962,-2.570561 0.249668,-0.270883 0.553733,-0.89011 0.6757,-1.376064 0.121966,-0.485953 0.341373,-0.883551 0.48757,-0.883551 0.30596,0 1.268225,-1.863918 1.173169,-2.272442 -0.0349,-0.149981 0.065,-0.272693 0.221995,-0.272693 0.156995,0 0.770554,-0.940791 1.363465,-2.090646 0.592911,-1.149856 1.176237,-2.172455 1.296281,-2.272442 0.37955,-0.316135 1.212096,-1.9881 1.131551,-2.272442 -0.04249,-0.149981 0.06011,-0.272693 0.227983,-0.272693 0.253438,0 1.138497,-1.547508 1.247682,-2.181544 0.01722,-0.09999 0.247513,-0.398001 0.511765,-0.662255 0.264253,-0.264251 0.480459,-0.714194 0.480459,-0.999875 0,-0.285677 0.153026,-0.519415 0.340057,-0.519415 0.187031,0 0.547131,-0.572655 0.800222,-1.272567 0.253092,-0.699912 0.564651,-1.272567 0.692354,-1.272567 0.281362,0 1.22872,-1.889192 1.139544,-2.272442 -0.0349,-0.149982 0.065,-0.272693 0.221995,-0.272693 0.156995,0 0.770555,-0.940791 1.363465,-2.090647 0.592911,-1.149856 1.176237,-2.172454 1.296283,-2.272442 0.379549,-0.316135 1.212095,-1.988099 1.131549,-2.272442 -0.04249,-0.149981 0.06011,-0.272693 0.227982,-0.272693 0.334936,0 1.31429,-1.835351 1.212586,-2.272442 -0.0349,-0.149981 0.065,-0.272693 0.221994,-0.272693 0.156998,0 0.770558,-0.940791 1.363465,-2.090646 0.592911,-1.149856 1.176238,-2.172455 1.296285,-2.272442 0.379548,-0.316135 1.212095,-1.9881 1.131548,-2.272442 -0.04248,-0.149981 0.06011,-0.272693 0.227983,-0.272693 0.29024,0 1.352764,-1.971302 1.091859,-2.02572 -0.06849,-0.01429 0.161809,-0.312299 0.511765,-0.662255 0.349956,-0.349956 0.636283,-0.870018 0.636283,-1.155699 0,-0.285677 0.153025,-0.519415 0.340056,-0.519415 0.187031,0 0.547131,-0.572655 0.800223,-1.272567 0.253092,-0.699912 0.564653,-1.272568 0.692353,-1.272568 0.281365,0 1.228722,-1.889192 1.139544,-2.272442 -0.0349,-0.149981 0.065,-0.272693 0.221994,-0.272693 0.156999,0 0.770558,-0.940791 1.363465,-2.090646 0.592911,-1.149856 1.176238,-2.172455 1.296285,-2.272442 0.379549,-0.316136 1.212095,-1.9881 1.131549,-2.272442 -0.04249,-0.149981 0.06011,-0.272693 0.227982,-0.272693 0.334936,0 1.31429,-1.835353 1.212586,-2.272442 -0.03491,-0.149981 0.065,-0.272693 0.221994,-0.272693 0.156998,0 0.770558,-0.940791 1.363465,-2.090647 0.592911,-1.149855 1.176238,-2.172454 1.296285,-2.272441 0.379548,-0.316136 1.212095,-1.988101 1.131548,-2.272442 -0.04249,-0.149982 0.06011,-0.272693 0.227983,-0.272693 0.253441,0 1.1385,-1.547508 1.247683,-2.181545 0.01723,-0.09999 0.247514,-0.398002 0.511765,-0.662254 0.264254,-0.264253 0.480459,-0.714196 0.480459,-0.999875 0,-0.285678 0.153025,-0.519415 0.340056,-0.519415 0.187031,0 0.547131,-0.572655 0.800223,-1.272567 0.253092,-0.699913 0.564653,-1.272568 0.692353,-1.272568 0.281365,0 1.228722,-1.889191 1.139544,-2.272442 -0.0349,-0.149981 0.065,-0.272693 0.221994,-0.272693 0.156999,0 0.770558,-0.940791 1.363465,-2.090646 0.592911,-1.149856 1.176238,-2.1724549 1.296285,-2.2724423 0.379549,-0.3161356 1.212095,-1.9881002 1.131549,-2.2724419 -0.04249,-0.1499812 0.06011,-0.2726931 0.227982,-0.2726931 0.251103,0 1.115838,-1.5051539 1.253334,-2.1815442 0.02032,-0.099987 0.168869,-0.3454112 0.330096,-0.5453861 C 68.846656,2.5128946 69.26484,1.9928267 69.614727,1.557163 L 70.250884,0.76504734 140.0603,0.53583529 c 38.39518,-0.12606661 69.97303,-0.0968462 70.17301,0.0649343 0.19997,0.16178049 0.8487,1.23493731 1.44161,2.38479291 0.5929,1.1498556 1.18873,2.0906465 1.32405,2.0906465 0.13531,0 0.34581,0.3975985 0.46778,0.883552 0.12197,0.4859535 0.42603,1.1051819 0.6757,1.3760628 0.24967,0.2708813 0.93905,1.4276331 1.53197,2.5705598 0.5929,1.1429274 1.20646,2.0780484 1.36346,2.0780484 0.157,0 0.25689,0.122712 0.22199,0.272694 -0.0951,0.408522 0.86721,2.272441 1.17317,2.272441 0.1462,0 0.3656,0.397599 0.48757,0.883552 0.12197,0.485954 0.42604,1.105182 0.6757,1.376063 0.24967,0.270881 0.93905,1.427633 1.53197,2.57056 0.5929,1.142927 1.17359,2.078049 1.29042,2.078049 0.11682,0 0.41948,0.572655 0.67257,1.272567 0.25309,0.699912 0.59545,1.272568 0.76081,1.272568 0.16535,0 0.40043,0.397598 0.52239,0.883552 0.12197,0.485953 0.42604,1.105182 0.6757,1.376063 0.24967,0.270881 0.93906,1.427633 1.53197,2.570559 0.5929,1.142927 1.17359,2.078049 1.29042,2.078049 0.11682,0 0.41948,0.572656 0.67257,1.272568 0.25309,0.699912 0.59545,1.272567 0.76081,1.272567 0.16535,0 0.40043,0.397599 0.52239,0.883552 0.12197,0.485954 0.42604,1.105182 0.6757,1.376063 0.24967,0.270881 0.93906,1.427631 1.53197,2.57056 0.5929,1.142926 1.1736,2.078049 1.29042,2.078049 0.11682,0 0.41948,0.572655 0.67257,1.272567 0.25309,0.699912 0.58032,1.272568 0.72718,1.272568 0.14686,0 0.47409,0.572655 0.72718,1.272567 0.2531,0.699912 0.6132,1.272568 0.80023,1.272568 0.18703,0 0.34005,0.233737 0.34005,0.519414 0,0.285681 0.25127,0.770682 0.55837,1.077789 0.30711,0.307103 0.57468,0.686924 0.5946,0.84405 0.0767,0.605153 0.79441,1.921835 1.04752,1.921835 0.1462,0 0.3656,0.397597 0.48757,0.883551 0.12197,0.485953 0.42603,1.105181 0.6757,1.376063 0.24967,0.270883 0.93905,1.427632 1.53197,2.570561 0.5929,1.142926 1.20646,2.078048 1.36346,2.078048 0.157,0 0.25689,0.122712 0.22199,0.272693 -0.0951,0.408524 0.86721,2.272442 1.17317,2.272442 0.1462,0 0.36561,0.397598 0.48757,0.883551 0.12197,0.485954 0.42604,1.105181 0.6757,1.376064 0.24967,0.270882 0.93906,1.427631 1.53197,2.570561 0.5929,1.142925 1.20646,2.078048 1.36346,2.078048 0.157,0 0.25689,0.122712 0.222,0.272693 -0.10171,0.43709 0.87765,2.272442 1.21258,2.272442 0.16787,0 0.27668,0.122712 0.24178,0.272693 -0.0951,0.408523 0.86721,2.272442 1.17317,2.272442 0.14619,0 0.3656,0.397597 0.48756,0.883551 0.12197,0.485953 0.42604,1.105181 0.67571,1.376063 0.24967,0.270883 0.93905,1.427632 1.53196,2.570561 0.59291,1.142926 1.20647,2.078048 1.36346,2.078048 0.157,0 0.2569,0.122712 0.222,0.272693 -0.1017,0.437091 0.87765,2.272442 1.21258,2.272442 0.16788,0 0.27668,0.122712 0.24178,0.272693 -0.0892,0.38325 0.85818,2.272442 1.13955,2.272442 0.1277,0 0.43926,0.572655 0.69235,1.272568 0.25309,0.699912 0.61319,1.272567 0.80022,1.272567 0.18703,0 0.34006,0.233738 0.34006,0.519415 0,0.28568 0.25126,0.770681 0.55837,1.077788 0.3071,0.307103 0.5374,0.605117 0.51177,0.662255 -0.12023,0.267981 0.90052,2.103631 1.16977,2.103631 0.16787,0 0.27667,0.122711 0.24177,0.272693 -0.1017,0.43709 0.87765,2.272441 1.21259,2.272441 0.16787,0 0.27667,0.122712 0.24177,0.272693 -0.1017,0.437091 0.87765,2.272442 1.21259,2.272442 0.16787,0 0.27668,0.122712 0.24178,0.272693 -0.0951,0.408524 0.86721,2.272442 1.17317,2.272442 0.14619,0 0.36847,0.40904 0.49395,0.908977 0.12547,0.499937 0.39829,0.908977 0.60626,0.908977 0.20796,0 0.277,0.163616 0.15341,0.363591 -0.12359,0.199976 -0.0514,0.363586 0.16033,0.363586 0.21178,0 0.38505,0.23374 0.38505,0.51942 0,0.28568 0.25127,0.77068 0.55837,1.07779 0.30711,0.3071 0.53741,0.60511 0.51177,0.66225 -0.12023,0.26798 0.90053,2.10363 1.16977,2.10363 0.16787,0 0.27668,0.12271 0.24178,0.2727 -0.10171,0.43709 0.87765,2.27244 1.21258,2.27244 0.16788,0 0.27668,0.12271 0.24178,0.27269 -0.1017,0.43709 0.87765,2.27244 1.21259,2.27244 0.16787,0 0.27667,0.12271 0.24177,0.2727 -0.10521,0.45218 0.88327,2.27244 1.23405,2.27244 0.17967,0 0.22556,0.16361 0.10197,0.36359 -0.12359,0.19997 -0.0692,0.36359 0.12092,0.36359 0.1901,0 0.4483,0.40904 0.57377,0.90898 0.12548,0.49993 0.3983,0.90897 0.60626,0.90897 0.20797,0 0.27701,0.16362 0.15341,0.36359 -0.12359,0.19998 -0.0514,0.36359 0.16034,0.36359 0.21178,0 0.38505,0.24543 0.38505,0.54539 0,0.29996 0.17327,0.54539 0.38505,0.54539 0.21178,0 0.28393,0.16361 0.16034,0.36359 -0.1236,0.19997 -0.0418,0.36359 0.18179,0.36359 0.22358,0 0.30539,0.16361 0.1818,0.36359 -0.12359,0.19997 -0.0418,0.36359 0.18179,0.36359 0.22358,0 0.30539,0.16361 0.1818,0.36359 -0.12359,0.19997 -0.0514,0.36359 0.16033,0.36359 0.21178,0 0.38505,0.24542 0.38505,0.54539 0,0.29996 0.17328,0.54538 0.38505,0.54538 0.21178,0 0.28393,0.16362 0.16034,0.36359 -0.12359,0.19998 -0.0865,0.36359 0.0824,0.36359 0.16892,0 0.30713,0.32724 0.30713,0.72719 0,0.39995 -0.13821,0.72718 -0.30713,0.72718 -0.16893,0 -0.20602,0.16361 -0.0824,0.36359 0.12359,0.19997 0.0546,0.36359 -0.15341,0.36359 -0.20797,0 -0.48078,0.40904 -0.60626,0.90897 -0.12548,0.49994 -0.38367,0.90898 -0.57377,0.90898 -0.1901,0 -0.24451,0.16362 -0.12092,0.36359 0.12359,0.19998 0.0242,0.36359 -0.22094,0.36359 -0.24511,0 -0.34642,0.0992 -0.22514,0.2205 0.12127,0.12128 -0.0912,0.5551 -0.47222,0.96404 -0.38099,0.40895 -0.60691,0.88238 -0.50203,1.05207 0.10487,0.16969 0.0437,0.30853 -0.13601,0.30853 -0.35077,0 -1.33926,1.82026 -1.23404,2.27244 0.0349,0.14998 -0.0739,0.27269 -0.24178,0.27269 -0.33494,0 -1.31429,1.83535 -1.21259,2.27244 0.0349,0.14999 -0.0739,0.2727 -0.24177,0.2727 -0.33494,0 -1.31429,1.83535 -1.21259,2.27244 0.0349,0.14998 -0.0739,0.27269 -0.24178,0.27269 -0.33493,0 -1.31429,1.83535 -1.21258,2.27244 0.0349,0.14999 -0.0739,0.2727 -0.24178,0.2727 -0.26924,0 -1.29,1.83565 -1.16977,2.10363 0.0256,0.0571 -0.20466,0.35515 -0.51177,0.66225 -0.3071,0.30711 -0.55837,0.79211 -0.55837,1.07779 0,0.28568 -0.15302,0.51942 -0.34005,0.51942 -0.18703,0 -0.54713,0.57265 -0.80022,1.27256 -0.2531,0.69992 -0.56466,1.27257 -0.69236,1.27257 -0.28136,0 -1.22872,1.88919 -1.13954,2.27244 0.0349,0.14998 -0.0739,0.2727 -0.24178,0.2727 -0.28391,0 -1.00489,1.27478 -1.08694,1.92183 -0.0199,0.15713 -0.28749,0.53695 -0.5946,0.84405 -0.3071,0.30711 -0.55837,0.79211 -0.55837,1.07779 0,0.28568 -0.15302,0.51941 -0.34005,0.51941 -0.18703,0 -0.54713,0.57266 -0.80023,1.27257 -0.25309,0.69991 -0.56465,1.27257 -0.69235,1.27257 -0.28136,0 -1.22872,1.88919 -1.13954,2.27244 0.0349,0.14998 -0.065,0.27269 -0.222,0.27269 -0.157,0 -0.77055,0.93513 -1.36346,2.07805 -0.59291,1.14293 -1.2823,2.29968 -1.53197,2.57056 -0.24966,0.27089 -0.55373,0.89011 -0.6757,1.37607 -0.12196,0.48595 -0.35704,0.88355 -0.52239,0.88355 -0.16536,0 -0.50772,0.57265 -0.76081,1.27257 -0.25309,0.69991 -0.56465,1.27256 -0.69235,1.27256 -0.21809,0 -1.1976,1.8788 -1.09673,2.10363 0.0256,0.0571 -0.20466,0.35516 -0.51177,0.66226 -0.3071,0.30711 -0.55837,0.79211 -0.55837,1.07779 0,0.28567 -0.15302,0.51941 -0.34005,0.51941 -0.18703,0 -0.54713,0.57266 -0.80023,1.27257 -0.25309,0.69991 -0.58032,1.27257 -0.72718,1.27257 -0.14686,0 -0.47409,0.57265 -0.72718,1.27256 -0.25309,0.69992 -0.55575,1.27257 -0.67257,1.27257 -0.11683,0 -0.69752,0.93512 -1.29042,2.07805 -0.59291,1.14293 -1.2823,2.29968 -1.53197,2.57056 -0.24966,0.27088 -0.55373,0.89011 -0.6757,1.37606 -0.12196,0.48596 -0.34137,0.88355 -0.48757,0.88355 -0.30596,0 -1.26822,1.86392 -1.17316,2.27245 0.0349,0.14998 -0.065,0.27269 -0.222,0.27269 -0.157,0 -0.77056,0.93512 -1.36346,2.07805 -0.59291,1.14293 -1.2823,2.29968 -1.53197,2.57056 -0.24966,0.27088 -0.55373,0.89011 -0.6757,1.37606 -0.12196,0.48596 -0.33247,0.88355 -0.46778,0.88355 -0.13532,0 -0.73114,0.93513 -1.32405,2.07805 -0.59291,1.14293 -1.2823,2.29968 -1.53197,2.57056 -0.24966,0.27088 -0.55373,0.89011 -0.6757,1.37607 -0.12196,0.48595 -0.33247,0.88355 -0.46778,0.88355 -0.13532,0 -0.73114,0.93512 -1.32405,2.07804 -0.59291,1.14293 -1.28229,2.29968 -1.53196,2.57057 -0.24967,0.27088 -0.55374,0.89011 -0.6757,1.37606 -0.12197,0.48595 -0.34138,0.88355 -0.48757,0.88355 -0.30596,0 -1.26823,1.86392 -1.17317,2.27244 0.0349,0.14998 -0.065,0.2727 -0.22199,0.2727 -0.157,0 -0.77056,0.93512 -1.36347,2.07804 -0.59291,1.14293 -1.28229,2.29968 -1.53196,2.57056 -0.24967,0.27089 -0.55374,0.89011 -0.6757,1.37607 -0.12197,0.48595 -0.33248,0.88355 -0.46779,0.88355 -0.13532,0 -0.73114,0.93512 -1.32405,2.07805 -0.59291,1.14293 -1.28229,2.29968 -1.53196,2.57056 -0.24967,0.27088 -0.55374,0.89011 -0.6757,1.37606 -0.12197,0.48595 -0.34137,0.88355 -0.48757,0.88355 -0.26405,0 -1.29067,1.97603 -1.05244,2.02572 0.0685,0.0143 -0.16181,0.3123 -0.51177,0.66226 -0.34995,0.34995 -0.63628,0.87002 -0.63628,1.1557 0,0.28567 -0.15303,0.51941 -0.34006,0.51941 -0.18703,0 -0.54713,0.57266 -0.80022,1.27257 -0.25309,0.69991 -0.56465,1.27257 -0.69235,1.27257 -0.28137,0 -1.22872,1.88919 -1.13955,2.27244 0.0349,0.14998 -0.065,0.27269 -0.22199,0.27269 -0.157,0 -0.77056,0.94079 -1.36347,2.09065 -0.59291,1.14985 -1.17623,2.17245 -1.29628,2.27244 -0.37955,0.31613 -1.2121,1.9881 -1.13155,2.27244 0.0425,0.14998 -0.0489,0.27269 -0.20304,0.27269 -0.15416,0 -0.66777,0.70932 -1.14136,1.57627 l -0.86107,1.57626 -48.54907,0.24169 c -26.70198,0.13293 -58.14576,0.24169 -69.875057,0.24169 H 70.563815 Z m 72.468369,-46.83862 c 2.96663,-0.31703 5.02124,-0.60194 6.18105,-0.85711 0.59992,-0.13199 1.33619,-0.28255 1.63615,-0.33457 4.83253,-0.83812 9.53897,-2.1874 15.10041,-4.3291 3.78118,-1.45613 9.22376,-3.99989 9.62376,-4.49797 0.1,-0.1245 0.79536,-0.53846 1.54526,-0.91991 0.74991,-0.38144 1.36347,-0.83139 1.36347,-0.99987 0,-0.16848 0.24542,-0.30634 0.54538,-0.30634 0.29997,0 0.54539,-0.12367 0.54539,-0.27483 0,-0.15116 0.44994,-0.4759 0.99987,-0.72165 0.54994,-0.24574 1.65434,-1.00839 2.45424,-1.69477 0.7999,-0.68638 2.02338,-1.71147 2.71885,-2.27798 2.81552,-2.29345 9.05274,-8.94511 9.42506,-10.05132 0.08,-0.23763 0.28953,-0.52662 0.46566,-0.64221 0.69594,-0.4567 3.71002,-5.45385 5.57513,-9.2432 1.82912,-3.71621 3.92678,-8.94351 4.34504,-10.82768 0.0985,-0.44397 0.58828,-2.36058 1.08828,-4.25914 0.5,-1.89855 1.00857,-4.18917 1.13016,-5.09027 0.12159,-0.90109 0.29223,-2.04739 0.37921,-2.54733 0.98293,-5.64983 0.97164,-21.24941 -0.0208,-28.72366 -0.50575,-3.80892 -0.69274,-4.90268 -1.30537,-7.635409 -0.38107,-1.699787 -0.87002,-3.663177 -1.08656,-4.363089 -0.21654,-0.699912 -0.46177,-1.582863 -0.54495,-1.962113 -0.24239,-1.105142 -0.9419,-3.207049 -1.52505,-4.582519 -0.29674,-0.699913 -0.66328,-1.5998 -0.81455,-1.999749 -0.68912,-1.822113 -3.90335,-8.193888 -5.04384,-9.998745 -2.1091,-3.337726 -5.67677,-7.688045 -8.3014,-10.122518 -1.36695,-1.267924 -2.81837,-2.617755 -3.22535,-2.999623 -0.40697,-0.381869 -0.84849,-0.694306 -0.98113,-0.694306 -0.13265,0 -0.68253,-0.409039 -1.22198,-0.908976 -0.53944,-0.499938 -1.20233,-0.908977 -1.47309,-0.908977 -0.27076,0 -0.4923,-0.163616 -0.4923,-0.363591 0,-0.199975 -0.24542,-0.363591 -0.54538,-0.363591 -0.29996,0 -0.54539,-0.141793 -0.54539,-0.315098 0,-0.429572 -8.66935,-4.821518 -11.8167,-5.986408 -4.8844,-1.807813 -12.96625,-3.825938 -17.63414,-4.403437 -5.74648,-0.710939 -13.6367,-0.909947 -36.44997,-0.919353 l -25.724046,-0.01061 v 73.843832 73.84383 l 25.905836,-0.17818 c 14.24821,-0.098 26.72392,-0.26561 27.72379,-0.37246 z"
   id="path4522"
   inkscape:connector-curvature="0" /><path
   style="opacity:0.78800001;fill:#000000;fill-opacity:0.61352659;stroke:#000000;stroke-width:0.36359072;stroke-opacity:1"
   d="M 68.669289,240.0467 C 53.973808,214.85861 0.2670869,121.58743 0.2870882,121.28896 0.30216682,121.06395 15.968381,93.801431 35.100899,60.705587 L 69.887293,0.5313252 140.11483,0.43950622 210.34236,0.34768723 224.9803,25.70906 c 44.89608,77.78597 54.88063,95.20061 54.88063,95.72055 0,0.22757 -1.98781,3.87833 -4.41736,8.1128 -6.84713,11.9339 -29.99806,52.05178 -47.87526,82.9623 -8.90552,15.39806 -16.44906,28.44539 -16.76343,28.99406 l -0.57157,0.99757 -70.06607,0.002 -70.066076,0.002 -1.431875,-2.45423 z m 55.029431,-45.18521 c 11.29803,-0.17457 21.33212,-0.48785 22.54262,-0.70382 1.19985,-0.21406 2.67239,-0.46493 3.27232,-0.55748 2.52789,-0.38995 8.66224,-2.06033 12.70958,-3.46079 11.53146,-3.99014 21.48055,-10.48167 28.80266,-18.79303 9.2097,-10.45397 14.9053,-24.02631 16.50867,-39.33942 0.67285,-6.42605 0.25497,-23.12652 -0.71512,-28.57945 -1.67707,-9.426963 -3.44714,-15.065775 -6.96215,-22.179038 -8.77066,-17.748997 -24.00791,-28.156148 -47.16026,-32.21081 -5.2314,-0.916172 -20.57629,-1.377179 -46.72337,-1.403714 l -17.361456,-0.01762 v 73.566522 c 0,40.46159 0.109078,73.6756 0.242395,73.80891 0.302959,0.30297 8.881547,0.2709 34.844111,-0.13026 z"
   id="path4524"
   inkscape:connector-curvature="0" /><path
   style="opacity:0.78800001;fill:#000000;fill-opacity:0.61352659;stroke:#000000;stroke-width:0.36359072;stroke-opacity:1"
   d="M 69.564453,241.68286 C 69.027557,240.84047 26.682444,167.56318 9.7420363,138.16149 4.5030491,129.06873 0.28549891,121.37878 0.36970248,121.07273 0.45390602,120.76667 10.821768,102.68213 23.409396,80.884871 35.997025,59.087609 51.604036,32.053047 58.091643,20.808068 l 11.79565,-20.44541631 70.305467,0.0843367 70.30547,0.0843368 6.7263,11.63490281 c 10.44506,18.06747 49.8464,86.433375 56.44757,97.943102 3.25464,5.67476 5.99897,10.62917 6.09851,11.0098 0.11529,0.44087 -1.04698,2.83246 -3.20223,6.58923 -4.575,7.97453 -36.34662,63.03067 -52.86814,91.61367 L 210.3024,242.50094 H 140.19413 70.085853 Z m 71.950207,-47.20845 c 19.67719,-1.55572 38.08809,-10.19146 49.53753,-23.23587 9.0708,-10.33441 14.90551,-24.38354 16.43806,-39.58039 0.5411,-5.36558 0.46249,-17.56257 -0.15031,-23.32218 C 205.64437,92.399418 200.34861,79.043445 191.74549,69.006534 184.41144,60.45019 173.34981,54.030113 160.19696,50.696037 151.29165,48.438659 150.09311,48.338689 127.33462,47.954996 115.73608,47.759453 102.31958,47.644162 97.520187,47.698791 l -8.726177,0.09933 -0.09325,73.263519 c -0.05128,40.29494 -0.02302,73.4485 0.06281,73.67456 0.197667,0.52063 45.71179,0.29475 52.75109,-0.26179 z"
   id="path4526"
   inkscape:connector-curvature="0" /><path
   style="opacity:0.78800001;fill:#000000;fill-opacity:0.61352659;stroke:#000000;stroke-width:0.36359072;stroke-opacity:1"
   d="M 69.135795,241.13522 C 68.722468,240.38656 56.795657,219.73107 42.63177,195.23415 -0.49030531,120.65306 0.12493275,121.7422 0.52768461,120.69805 0.85816562,119.84127 10.47653,103.12592 52.257278,30.799334 l 17.590936,-30.45163936 70.364616,0.0918153 70.36463,0.0918153 11.75801,20.36107976 c 21.8457,37.82966 53.42727,92.691975 55.48295,96.382865 1.12338,2.01698 2.04251,3.90432 2.04251,4.19408 0,0.73702 -7.08946,13.10363 -57.19073,99.76153 l -12.19217,21.08827 -70.29537,0.0886 -70.295367,0.0886 z M 144.96877,194.1504 c 10.72585,-1.3634 23.3234,-5.70488 31.6324,-10.90145 15.54341,-9.72107 25.82288,-24.89009 29.61917,-43.70787 1.34004,-6.64238 1.77133,-13.00353 1.49946,-22.11534 -0.44241,-14.82748 -2.57856,-24.832212 -7.52809,-35.258102 C 192.72491,66.439271 180.10357,56.304224 161.51215,51.107614 155.93291,49.548126 150.86883,48.764738 143.878,48.379706 136.71123,47.984981 89.540483,47.658891 89.196886,48.001695 88.836088,48.361661 88.496865,152.14251 88.785298,173.92132 l 0.278721,21.04548 26.407121,-0.21177 c 15.3851,-0.12339 27.69706,-0.37575 29.49763,-0.60463 z"
   id="path4528"
   inkscape:connector-curvature="0" /><path
   style="opacity:0.78800001;fill:#000000;fill-opacity:0.61352659;stroke:#000000;stroke-width:0.36359072;stroke-opacity:1"
   d="M 70.065478,242.49873 C 69.778383,242.32128 28.45486,170.96164 9.4342437,137.79752 1.1619142,123.37398 0.19866625,121.52808 0.51164866,120.6989 0.89510574,119.683 5.362011,111.90657 43.848959,45.252982 L 69.672025,0.5313252 140.13446,0.44985027 210.5969,0.36837537 227.30117,29.355312 c 9.18735,15.942814 24.05756,41.748969 33.04492,57.347011 8.98735,15.598037 17.09574,29.791717 18.01864,31.541497 l 1.67799,3.18142 -1.67726,3.18141 c -2.32323,4.4067 -67.36668,117.09245 -67.88789,117.61366 -0.30077,0.30078 -139.928004,0.57764 -140.412092,0.27842 z m 73.630732,-48.33934 c 12.42901,-1.28021 27.05549,-6.63383 36.54086,-13.37477 5.07333,-3.60544 11.98774,-10.65384 15.25118,-15.5467 9.48839,-14.22589 13.13239,-29.55672 12.065,-50.75915 -0.42364,-8.41489 -0.90611,-11.87648 -2.62189,-18.811148 -1.91965,-7.75864 -5.26824,-15.366074 -9.54779,-21.690974 -2.99737,-4.429927 -9.65619,-11.052238 -14.04417,-13.967162 -8.95048,-5.945803 -21.23087,-10.15863 -33.01388,-11.325524 -2.14617,-0.21254 -16.37784,-0.479074 -31.62592,-0.5923 L 88.975805,47.885797 v 73.546263 73.54626 l 25.542245,-0.22221 c 14.04824,-0.12222 27.17841,-0.39074 29.17816,-0.59672 z"
   id="path4530"
   inkscape:connector-curvature="0" /><path
   style="opacity:0.78800001;fill:#000000;fill-opacity:0.61352659;stroke:#000000;stroke-width:0.36359072;stroke-opacity:1"
   d="M 70.16745,242.58905 C 69.732861,242.2939 51.217408,210.43086 20.254001,156.69353 -0.98443009,119.83401 0.09844767,121.82135 0.56738122,120.56383 0.97140929,119.48037 10.001826,103.75094 47.457026,38.890145 L 69.608117,0.5313252 140.11642,0.4395124 l 70.5083,-0.0918127 1.82674,3.1823337 c 1.0047,1.7502835 13.28949,23.0616556 27.29952,47.3586046 36.80972,63.837362 40.10995,69.634932 40.10995,70.461792 0,0.90686 -1.26731,3.17845 -17.08076,30.61642 -33.66839,58.41815 -51.76004,89.66379 -52.1342,90.03965 -0.49561,0.49787 -139.752898,1.07534 -140.47852,0.58255 z m 58.25795,-48.07639 c 18.93612,-0.39359 22.17562,-0.81783 32.54137,-4.26161 24.8204,-8.24602 40.08337,-25.83169 45.50121,-52.42555 0.65593,-3.2197 0.81286,-5.49646 0.95052,-13.7903 0.1777,-10.70587 -0.20236,-16.99921 -1.40922,-23.33463 C 202.59167,82.759658 193.94543,68.553958 181.3235,60.142011 172.05089,53.962241 159.3673,49.699944 147.26307,48.696073 144.70137,48.483617 130.53877,48.21184 115.79062,48.09212 L 88.975805,47.874449 v 73.498051 73.49806 l 11.725805,-0.0127 c 6.44919,-0.007 18.92489,-0.16232 27.72379,-0.34521 z"
   id="path4532"
   inkscape:connector-curvature="0" /><path
   style="opacity:0.78800001;fill:#000000;fill-opacity:0.61352659;stroke:#000000;stroke-width:0.36359072;stroke-opacity:1"
   d="M 68.357641,239.92492 C 65.859853,235.75508 48.827956,206.35456 29.092973,172.14614 2.5295405,126.10134 0.25967248,122.09375 0.25967248,121.23916 c 0,-0.30137 3.21430442,-6.15025 7.14289872,-12.99751 C 13.952572,96.82547 50.038727,34.268162 63.767454,10.53007 L 69.550146,0.5313252 139.70993,0.32939648 c 38.58788,-0.11106078 70.35895,-0.13651362 70.60238,-0.0565618 0.24342,0.0799518 0.82633,0.82528292 1.29534,1.65629152 0.46901,0.8310085 12.31394,21.3902468 26.32208,45.6871958 26.32382,45.658365 38.65549,67.120298 40.99229,71.342608 l 1.35159,2.44217 -1.35867,2.46631 c -2.11881,3.84615 -12.45411,21.83817 -32.4325,56.45952 -28.68454,49.70859 -35.3754,61.23077 -35.83811,61.71605 -0.33776,0.35423 -15.45354,0.50365 -70.44199,0.6963 l -70.01194,0.24528 z m 71.339069,-45.79593 c 10.88527,-0.50701 20.4129,-2.90266 30.17803,-7.58803 7.69033,-3.68987 11.62483,-6.4052 17.40034,-12.00854 10.43234,-10.12135 16.50777,-22.14941 19.3947,-38.39738 0.81665,-4.59624 0.92346,-24.45786 0.16121,-29.98061 C 205.20306,94.359365 201.43749,83.53339 196.08509,75.26 192.27235,69.366521 186.59793,63.694285 180.47713,59.658039 171.33767,53.631188 158.03482,49.45857 145.58471,48.713555 142.54629,48.531734 128.56629,48.266535 114.51805,48.124222 L 88.975805,47.865469 v 73.260151 c 0,40.29308 0.122712,73.38819 0.272693,73.54468 0.330006,0.34432 40.744302,-0.0893 50.448212,-0.54131 z"
   id="path4534"
   inkscape:connector-curvature="0" /><path
   style="opacity:0.78800001;fill:#000000;fill-opacity:0.61352659;stroke:#000000;stroke-width:0.36359072;stroke-opacity:1"
   d="M 69.834205,242.46134 C 69.376012,241.89482 57.505175,221.45567 34.063961,180.87232 9.0529916,137.57127 0.25967248,122.08739 0.25967248,121.34741 c 0,-0.3792 1.41208362,-3.17557 3.13796382,-6.21416 C 5.8610302,110.79619 69.316877,0.69953982 69.482402,0.4753975 69.505115,0.44463725 101.20665,0.29881829 139.93026,0.15135539 l 70.40656,-0.26811435 0.91349,1.41481416 c 1.80177,2.790576 66.71707,115.6603848 68.22279,118.6206148 l 0.80568,1.58396 -3.08429,5.52241 c -2.98388,5.34265 -38.37843,66.75808 -56.76038,98.48868 -4.95589,8.55479 -9.29194,15.90145 -9.63565,16.32592 l -0.62494,0.77176 -69.96512,0.17786 c -59.47308,0.1512 -70.026468,0.10202 -70.374195,-0.32792 z m 66.953775,-48.33021 c 9.08818,-0.32439 12.28082,-0.70668 17.90018,-2.14336 27.89512,-7.13183 45.76027,-25.59527 51.35642,-53.07628 1.50938,-7.41211 1.86723,-23.20962 0.73379,-32.39347 -1.50713,-12.211648 -5.30672,-22.973821 -11.30304,-32.015362 -2.89081,-4.358892 -9.8706,-11.374037 -14.16916,-14.240924 -8.28355,-5.524637 -20.6563,-9.927972 -31.42892,-11.185228 -3.14996,-0.367627 -37.22074,-1.063252 -53.176811,-1.085715 l -7.727972,-0.01088 0.0051,73.206359 c 0.0029,40.2635 0.120243,73.32151 0.260978,73.46224 0.31059,0.31059 34.896185,-0.0657 47.549435,-0.51738 z"
   id="path4536"
   inkscape:connector-curvature="0" /><path
   style="opacity:0.78800001;fill:#000000;fill-opacity:0.61352659;stroke:#000000;stroke-width:0.36359072;stroke-opacity:1"
   d="M 69.194994,241.50107 C 66.496166,237.34039 3.2893866,127.75653 0.99999566,123.26895 0.59281792,122.47081 0.26027048,121.52495 0.26100133,121.16703 0.26250384,120.43121 4.786736,112.503 42.57381,47.018571 L 69.435342,0.46794054 93.112918,0.22724542 C 106.13558,0.0948631 137.83067,-0.01358725 163.54644,-0.0137553 207.62551,-0.01404337 210.33369,0.02236787 210.84903,0.62222288 211.55417,1.4430226 276.30139,113.8594 279.10829,119.13634 l 1.2,2.25598 -1.72358,3.19788 c -2.45685,4.55837 -51.13803,89.06486 -64.17371,111.40023 l -3.73348,6.39697 -8.73447,0.23856 c -4.80395,0.13121 -36.43853,0.23857 -70.29905,0.23857 H 70.079407 Z m 65.229646,-47.34469 c 10.81403,-0.36608 15.38048,-0.9335 21.90658,-2.7221 17.38057,-4.76349 31.01335,-14.24864 39.76129,-27.66433 5.39175,-8.26868 9.54236,-19.92437 10.69491,-30.03325 0.52207,-4.57904 0.51844,-21.74417 -0.006,-26.4915 C 205.70114,97.455223 202.4686,86.76237 198.33575,79.306575 194.69646,72.7412 188.60913,65.695673 182.964,61.515206 174.41283,55.182681 161.34219,50.405455 148.91641,49.071048 145.00713,48.651232 89.747952,47.813781 89.392669,48.168972 89.057864,48.503683 88.8746,157.52801 89.174947,177.6909 l 0.250492,16.81607 17.682031,-0.0122 c 9.72511,-0.007 22.01784,-0.15898 27.31717,-0.33837 z"
   id="path4538"
   inkscape:connector-curvature="0" /><path
   style="opacity:0.78800001;fill:#000000;fill-opacity:0.61352659;stroke:#000000;stroke-width:0.36359072;stroke-opacity:1"
   d="M 68.763238,240.96623 C 68.154052,239.91056 63.803999,232.42039 59.096444,224.32141 39.059069,189.84863 8.1853805,136.25949 3.2824874,127.44209 c -1.6625482,-2.98994 -3.02281492,-5.78697 -3.02281492,-6.21563 0,-0.87181 4.75544502,-9.22328 42.65802852,-74.915592 L 69.369133,0.46555248 78.899776,0.22649013 c 5.241854,-0.13148432 36.951844,-0.23939732 70.466634,-0.23980668 57.57862,-7.033e-4 60.96691,0.03431278 61.49721,0.63553943 0.57715,0.65435042 12.7001,21.61063712 45.16897,78.08110412 22.09091,38.420943 24.19193,42.130943 24.19193,42.718423 0,0.573 -1.00332,2.35304 -17.01183,30.18151 -24.89281,43.27258 -49.23599,85.32032 -52.41393,90.53409 -0.2933,0.48119 -8.6064,0.55733 -70.63017,0.64683 l -70.29775,0.10144 z m 73.296812,-47.18909 c 12.83531,-0.94108 26.0825,-5.42915 36.5552,-12.38469 5.52057,-3.66654 13.19664,-11.34044 16.85779,-16.85304 6.16345,-9.2803 10.25653,-20.76396 11.2917,-31.6803 0.48783,-5.14444 0.48683,-20.09505 -0.002,-24.93911 C 205.5585,95.975457 201.38624,83.706943 195.46693,74.703829 193.03264,71.001323 184.9702,62.870617 181.32017,60.437265 173.71023,55.363982 162.83019,51.281738 152.42238,49.59467 148.29562,48.925736 135.42215,48.50144 116.4269,48.408291 109.62776,48.37495 100.77808,48.240763 96.760951,48.110096 l -7.303872,-0.237577 -0.257313,34.038213 c -0.141524,18.721018 -0.141477,51.739408 1.02e-4,73.374208 l 0.257422,39.33599 23.66534,-0.22862 c 13.01595,-0.12575 26.03778,-0.40257 28.93742,-0.61517 z"
   id="path4540"
   inkscape:connector-curvature="0" /><path
   style="opacity:0.78800001;fill:#000000;fill-opacity:0.61352659;stroke:#000000;stroke-width:0.36359072;stroke-opacity:1"
   d="M 118.42665,121.19452 V 76.242153 l 11.36221,0.201681 c 15.72619,0.279141 21.34927,1.252814 28.81457,4.989428 11.70798,5.860208 17.52608,16.443772 18.70383,34.023668 1.75761,26.23528 -8.67734,43.70445 -29.19172,48.86992 -5.93714,1.49496 -9.51331,1.81788 -20.14463,1.81902 l -9.54426,0.001 z"
   id="path4542"
   inkscape:connector-curvature="0" /><path
   style="opacity:0.78800001;fill:#000000;fill-opacity:0.61352659;stroke:#000000;stroke-width:0.36359072;stroke-opacity:1"
   d="m 118.69935,165.9433 c -0.14999,-0.15466 -0.2727,-20.38999 -0.2727,-44.96742 V 76.289668 l 10.45324,0.249403 c 14.13236,0.337183 14.34006,0.35258 19.543,1.448759 3.65206,0.769435 3.51843,0.736303 4.24379,1.052176 0.33434,0.145594 0.82519,0.300887 1.09078,0.345096 0.26558,0.04421 0.81011,0.260895 1.21006,0.481526 0.39995,0.220632 0.851,0.41509 1.00234,0.432129 0.15134,0.01704 1.13304,0.474944 2.18155,1.017564 1.04851,0.542621 2.02909,0.953854 2.17907,0.913851 0.14998,-0.04 0.27269,0.100539 0.27269,0.312316 0,0.211776 0.14648,0.294524 0.3255,0.183884 0.17902,-0.110642 0.42329,0.05369 0.54281,0.365177 0.11953,0.311489 0.36496,0.475105 0.54539,0.363591 0.18044,-0.111514 0.43087,0.06515 0.55651,0.392586 0.12565,0.327435 0.33114,0.492654 0.45664,0.367154 0.1255,-0.125502 0.43569,0.0556 0.68931,0.402448 0.25362,0.346848 0.59703,0.638423 0.76314,0.647946 0.40533,0.02324 4.1197,3.821578 4.1197,4.21284 0,0.169712 0.32723,0.512927 0.72718,0.7627 0.39995,0.249773 0.72718,0.660199 0.72718,0.912058 0,0.251859 0.16362,0.457925 0.36359,0.457925 0.19998,0 0.36359,0.245424 0.36359,0.545386 0,0.299963 0.16362,0.545386 0.36359,0.545386 0.19998,0 0.33087,0.122712 0.29086,0.272693 -0.04,0.149982 0.37123,1.130565 0.91385,2.179075 0.54262,1.04851 0.95675,1.948397 0.92027,1.999749 -0.0365,0.05135 0.16006,0.502407 0.43673,1.002344 0.27668,0.499937 0.5293,1.031689 0.56138,1.18167 0.0321,0.149981 0.0992,0.354501 0.14923,0.454488 0.05,0.09999 0.1318,0.345412 0.1818,0.545382 0.05,0.19998 0.1235,0.4045 0.16336,0.45449 0.0399,0.05 0.14402,0.49994 0.23148,0.99988 0.0874,0.49993 0.26163,1.1544 0.38705,1.45436 0.12543,0.29996 0.27247,0.79081 0.32677,1.09077 0.0543,0.29996 0.19759,0.95443 0.31844,1.45436 1.18042,4.88333 1.71688,14.9598 1.14208,21.45186 -0.24066,2.7181 -0.33044,3.4057 -0.75953,5.81745 -0.12453,0.69991 -0.28268,1.5998 -0.35145,1.99975 -0.0688,0.39995 -0.16359,0.80899 -0.21072,0.90897 -0.0471,0.1 -0.11747,0.34541 -0.15634,0.54539 -0.0389,0.19997 -0.17578,0.60901 -0.30427,0.90898 -0.71153,1.66109 -1.62101,4.72746 -1.40357,4.73224 0.13921,0.003 0.0895,0.12578 -0.11048,0.2727 -0.44498,0.32691 -2.88861,5.25013 -2.79449,5.63008 0.0372,0.14999 -0.0961,0.2727 -0.29604,0.2727 -0.19997,0 -0.36359,0.22792 -0.36359,0.50648 0,0.27857 -0.25579,0.60465 -0.56843,0.72462 -0.31263,0.11997 -0.47719,0.36575 -0.36568,0.54618 0.11152,0.18044 -0.0417,0.42188 -0.34054,0.53655 -0.29881,0.11466 -0.5433,0.3574 -0.5433,0.53941 0,0.43138 -5.67124,6.10262 -6.37123,6.37123 -0.29535,0.11333 -0.53699,0.37481 -0.53699,0.58107 0,0.20625 -0.21458,0.375 -0.47683,0.375 -0.26226,0 -0.79401,0.28633 -1.18167,0.63628 -0.38766,0.34996 -1.93196,1.20894 -3.43177,1.90885 -1.49982,0.69991 -2.82703,1.40925 -2.94938,1.57632 -0.12234,0.16706 -0.36777,0.27996 -0.54539,0.25089 -0.54332,-0.0889 -3.42037,0.79856 -3.61626,1.11551 -0.10124,0.16381 -0.40771,0.21202 -0.68104,0.10714 -0.27333,-0.10489 -0.60663,-0.0133 -0.74066,0.2036 -0.13403,0.21687 -0.39601,0.30018 -0.58216,0.18513 -0.18616,-0.11506 -0.54011,-0.0846 -0.78657,0.0678 -0.24645,0.15232 -0.69639,0.31368 -0.99987,0.35859 -0.30348,0.0449 -1.12444,0.18351 -1.82435,0.308 -2.6168,0.46542 -4.06705,0.54279 -14.36183,0.76616 -5.79927,0.12583 -10.66684,0.10224 -10.81682,-0.0524 z"
   id="path4544"
   inkscape:connector-curvature="0" /><path
   style="opacity:0.78800001;fill:#000000;fill-opacity:0.61352659;stroke:#000000;stroke-width:0.36359072;stroke-opacity:1"
   d="M 118.42665,121.28067 V 76.339988 l 8.45349,0.0086 c 16.03576,0.01633 23.50853,1.115417 30.67937,4.512277 9.69207,4.59118 15.14737,11.475639 18.10081,22.842815 0.97611,3.75684 1.10849,4.70891 1.7277,12.42507 0.64612,8.05165 -0.25305,16.49085 -2.48193,23.29422 -2.07381,6.33 -5.18971,11.39769 -9.62745,15.658 -5.39323,5.17759 -11.21323,8.09721 -20.02727,10.04673 -2.89285,0.63985 -5.04263,0.77082 -15.09892,0.91986 l -11.7258,0.17379 z"
   id="path4546"
   inkscape:connector-curvature="0" /><path
   style="opacity:0.78800001;fill:#000000;fill-opacity:0.61352659;stroke:#000000;stroke-width:0.36359072;stroke-opacity:1"
   d="m 118.30529,135.91718 c -0.13296,-16.66947 -0.24186,-36.915136 -0.24199,-44.990352 l -2.4e-4,-14.682211 11.9076,0.198297 c 12.86136,0.21418 17.07829,0.650362 22.41803,2.318833 13.15687,4.111039 20.7191,12.7307 23.80617,27.135003 1.03665,4.83702 1.63459,12.75666 1.36457,18.07362 -0.71891,14.15629 -4.55252,23.73974 -12.53532,31.33641 -3.80839,3.62419 -7.71775,6.03071 -12.6846,7.80839 -6.93381,2.48168 -8.79117,2.72965 -21.94507,2.92985 l -11.84741,0.18031 z"
   id="path4548"
   inkscape:connector-curvature="0" /><path
   style="opacity:0.78800001;fill:#000000;fill-opacity:0.61352659;stroke:#000000;stroke-width:0.36359072;stroke-opacity:1"
   d="m 118.30094,156.54356 c -0.32904,-13.53507 -0.30017,-80.131953 0.0348,-80.286317 0.62542,-0.288201 23.77934,0.403639 26.45123,0.790363 14.31539,2.071981 24.23068,9.077029 28.93504,20.442305 1.40405,3.392049 2.66714,8.253409 3.2904,12.664009 0.72889,5.15805 0.62556,17.44942 -0.18492,21.99724 -2.84436,15.96059 -11.67453,26.8063 -25.59148,31.43292 -6.69487,2.22567 -7.07714,2.26144 -28.48109,2.6651 l -4.21611,0.0795 z"
   id="path4550"
   inkscape:connector-curvature="0" /><path
   style="opacity:0.78800001;fill:#000000;fill-opacity:0.61352659;stroke:#000000;stroke-width:0.36359072;stroke-opacity:1"
   d="m 118.30158,162.96547 c -0.34536,-5.21527 -0.29017,-86.550645 0.0589,-86.766366 0.68358,-0.422478 24.69126,0.490143 28.06268,1.066767 15.12247,2.586442 24.91266,10.96414 28.90262,24.732639 2.71873,9.38177 3.11627,23.71058 0.91792,33.08486 -3.83159,16.33877 -14.21584,26.53299 -30.73263,30.17019 -2.13714,0.47063 -15.3523,1.11284 -25.4843,1.23845 l -1.49042,0.0185 z"
   id="path4552"
   inkscape:connector-curvature="0" /><path
   style="opacity:0.78800001;fill:#000000;fill-opacity:0.61352659;stroke:#000000;stroke-width:0.36359072;stroke-opacity:1"
   d="m 118.29031,165.37426 c -0.12499,-0.62492 -0.22725,-20.91841 -0.22725,-45.09666 0,-38.704424 0.0651,-43.985411 0.54438,-44.169333 0.80816,-0.310118 23.92982,0.530594 27.0447,0.983355 5.72373,0.831965 12.38736,3.325278 16.90976,6.327075 2.50966,1.665813 6.1001,5.238941 7.83622,7.798438 3.04235,4.485201 5.20504,10.187905 6.4232,16.937035 0.939,5.20248 0.95617,19.67621 0.0289,24.36058 -2.79739,14.13177 -9.36351,23.42879 -20.50733,29.03648 -3.24893,1.6349 -7.35724,3.03188 -10.97869,3.73317 -2.79736,0.54171 -14.90088,1.19115 -22.61992,1.21372 l -4.22674,0.0124 z"
   id="path4554"
   inkscape:connector-curvature="0" /><path
   style="opacity:0.78800001;fill:#000000;fill-opacity:0.61352659;stroke:#000000;stroke-width:0.36359072;stroke-opacity:1"
   d="m 118.30546,166.26809 c -0.13332,-0.13332 -0.2424,-20.42682 -0.2424,-45.09666 0,-41.687797 0.0432,-44.870828 0.61141,-45.088885 1.05256,-0.403903 24.78984,0.589325 28.11226,1.176288 9.36846,1.655099 17.4303,6.053262 22.30645,12.169365 4.40747,5.528234 7.39748,13.877322 8.26173,23.069422 0.54655,5.81301 0.25518,16.33782 -0.56851,20.53564 -2.19612,11.19237 -7.34605,19.79359 -15.30893,25.56842 -4.07918,2.9583 -10.98313,5.81929 -16.41342,6.80171 -4.40279,0.79652 -26.12482,1.49847 -26.75859,0.8647 z"
   id="path4556"
   inkscape:connector-curvature="0" /><path
   style="opacity:0.78800001;fill:#000000;fill-opacity:0.61352659;stroke:#000000;stroke-width:0.36359072;stroke-opacity:1"
   d="m 118.25265,166.11293 c -0.10718,-0.28129 -0.15278,-20.63617 -0.10134,-45.23308 l 0.0936,-44.721658 9.63515,0.0805 c 11.64558,0.0973 17.79176,0.569295 22.29787,1.712363 14.01931,3.556291 22.45028,12.178022 25.87093,26.456305 1.21319,5.06399 1.63659,9.20282 1.64015,16.03233 0.005,9.42903 -0.78027,14.38964 -3.36807,21.27914 -1.95358,5.201 -4.30269,8.80662 -8.44565,12.96309 -4.11967,4.13311 -7.70948,6.47972 -12.88855,8.42505 -6.898,2.591 -9.69224,2.97231 -24.09637,3.28829 -8.79098,0.19285 -10.47362,0.1482 -10.63767,-0.28233 z"
   id="path4558"
   inkscape:connector-curvature="0" /><path
   style="opacity:0.78800001;fill:#000000;fill-opacity:0.61352659;stroke:#000000;stroke-width:0.36359072;stroke-opacity:1"
   d="M 118.06306,121.18545 V 75.860413 l 10.53219,0.247878 c 15.60755,0.36733 19.62436,0.855204 25.901,3.145893 11.09474,4.049081 17.675,11.331276 21.18557,23.445516 1.59799,5.51435 2.10909,10.94555 1.899,20.1799 -0.19986,8.78449 -0.8258,12.71353 -2.89823,18.19241 -4.76329,12.59266 -14.64581,21.06609 -28.12363,24.11366 -3.38718,0.7659 -12.34162,1.32192 -21.31498,1.32353 l -7.18092,0.001 z"
   id="path4560"
   inkscape:connector-curvature="0" /><path
   style="opacity:0.78800001;fill:#000000;fill-opacity:0.61352659;stroke:#000000;stroke-width:0.36359072;stroke-opacity:1"
   d="M 118.06306,121.23487 V 75.85975 l 10.63503,0.233585 c 16.91509,0.371519 21.98056,1.144455 28.86142,4.40395 8.56651,4.057992 13.84116,9.89869 17.05182,18.881727 2.46943,6.909178 2.86712,9.773898 2.88387,20.773658 0.0164,10.73747 -0.22304,12.90439 -2.06852,18.72492 -1.35707,4.2801 -3.45955,8.53873 -5.74414,11.6349 -2.0082,2.72162 -6.33145,6.99303 -8.71577,8.61127 -4.64083,3.14974 -11.96388,5.91299 -17.63415,6.65399 -1.79978,0.2352 -8.2217,0.51867 -14.27094,0.62994 l -10.99862,0.2023 z"
   id="path4562"
   inkscape:connector-curvature="0" /><path
   style="opacity:0.78800001;fill:#000000;fill-opacity:0.61352659;stroke:#000000;stroke-width:0.36359072;stroke-opacity:1"
   d="m 118.00122,138.96849 c -0.0848,-15.1481 -0.0853,-35.51827 -0.001,-45.267046 l 0.15307,-17.725047 6.77225,0.0069 c 7.80398,0.008 18.16954,0.526574 21.75603,1.088424 5.69137,0.891595 12.15215,3.499767 16.68931,6.737356 2.72149,1.941977 6.45175,5.932965 8.07847,8.643109 2.86721,4.776798 5.06333,11.499974 5.84164,17.883494 0.50512,4.14288 0.51924,16.1425 0.0237,20.18882 -1.13855,9.2978 -4.77871,17.3153 -10.67883,23.52025 -3.83183,4.02981 -7.91807,6.87078 -12.67988,8.81573 -7.04508,2.87753 -12.85501,3.64086 -27.75683,3.64677 l -8.04374,0.003 z"
   id="path4564"
   inkscape:connector-curvature="0" /><path
   style="opacity:0.78800001;fill:#000000;fill-opacity:0.61352659;stroke:#000000;stroke-width:0.36359072;stroke-opacity:1"
   d="m 118.75849,166.60265 c -0.51334,-0.10914 -0.60377,-2.05684 -0.81808,-17.61954 -0.30823,-22.38323 -0.30862,-51.715367 -8.5e-4,-63.676171 l 0.24009,-9.330542 7.30442,0.0033 c 9.01345,0.004 18.31662,0.540355 22.34031,1.287957 3.97806,0.739124 9.26173,2.648171 12.72657,4.598244 4.22935,2.380354 9.54349,7.853548 11.75641,12.108288 1.93337,3.717253 3.57706,8.387684 4.54258,12.907474 0.97117,4.5462 0.96886,22.77587 -0.003,27.19515 -1.90624,8.66422 -5.40326,15.30705 -11.00946,20.91326 -6.7436,6.7436 -15.26786,10.35895 -26.26721,11.14059 -5.07006,0.36029 -19.76886,0.69369 -20.81134,0.47204 z"
   id="path4566"
   inkscape:connector-curvature="0" /><path
   style="opacity:0.78800001;fill:#000000;fill-opacity:0.61352659;stroke:#000000;stroke-width:0.36359072;stroke-opacity:1"
   d="m 118.14255,166.23779 c -0.42095,-1.02512 -0.32025,-89.806376 0.10231,-90.197969 0.45323,-0.420017 21.14739,0.104162 25.98533,0.658202 9.72694,1.113929 17.50721,4.725932 23.34788,10.839283 4.58698,4.801147 7.40839,10.603423 9.2705,19.064994 0.98786,4.48892 0.97524,23.47993 -0.0184,27.73041 -2.0288,8.67828 -5.48445,15.2542 -10.81986,20.58962 -4.3869,4.3869 -8.82824,7.05552 -15.34763,9.22178 -4.8426,1.60909 -7.69339,1.97239 -18.60135,2.3705 -13.25915,0.48392 -13.60922,0.47695 -13.91875,-0.27682 z"
   id="path4568"
   inkscape:connector-curvature="0" /><path
   style="opacity:0.78800001;fill:#000000;fill-opacity:0.61352659;stroke:#000000;stroke-width:0.36359072;stroke-opacity:1"
   d="m 118.17542,166.41959 c -0.37117,-0.57348 -0.63423,-77.779431 -0.29052,-85.261745 l 0.2547,-5.544478 8.05162,0.200063 c 16.71314,0.41528 22.72461,1.090882 28.24379,3.174198 11.7821,4.447366 18.39954,12.110704 21.88926,25.348842 1.0598,4.02033 1.10897,4.54805 1.27731,13.70862 0.25906,14.09732 -0.52573,18.83899 -4.44087,26.83175 -4.58878,9.36797 -12.07047,15.8573 -22.1763,19.23487 -4.39768,1.46979 -8.27585,2.00804 -17.26256,2.39586 -11.38733,0.49143 -15.18534,0.46993 -15.54643,-0.088 z"
   id="path4570"
   inkscape:connector-curvature="0" /><path
   style="opacity:0.78800001;fill:#000000;fill-opacity:0.61352659;stroke:#000000;stroke-width:0.36359072;stroke-opacity:1"
   d="m 118.16437,166.29465 c -0.35785,-0.87616 -0.37649,-90.164165 -0.0189,-90.52182 0.33714,-0.337202 23.1414,0.460019 27.00509,0.94408 6.9105,0.865778 14.61324,3.988704 19.45703,7.888475 5.84789,4.708173 9.42259,10.743225 11.90256,20.094675 0.83962,3.16608 0.93059,4.26406 1.09082,13.16692 0.19447,10.80497 -0.1202,14.78121 -1.56535,19.7802 -4.72628,16.34897 -17.30501,26.72143 -34.52097,28.46612 -1.99975,0.20266 -8.00794,0.48233 -13.35155,0.62149 -9.34212,0.24328 -9.72652,0.22636 -9.99874,-0.44014 z"
   id="path4572"
   inkscape:connector-curvature="0" /><path
   style="opacity:0.78800001;fill:#000000;fill-opacity:0.61352659;stroke:#000000;stroke-width:0.36359072;stroke-opacity:1"
   d="M 67.551812,238.95593 C 63.305581,231.7683 30.856561,175.68334 17.958896,153.23942 3.2478318,127.63991 0.25967248,122.24371 0.25967248,121.27706 c 0,-1.08827 1.31098532,-3.39137 48.65614152,-85.477436 L 69.257667,0.5313252 71.935821,0.30615475 C 73.408803,0.18231103 105.1609,0.05959916 142.49603,0.03346172 l 67.88206,-0.04752258 0.87837,1.18166976 c 0.82379,1.1082389 15.47151,26.4430821 47.77148,82.6259881 17.96017,31.240103 21.19658,36.993503 21.19658,37.681333 0,0.31343 -4.06626,7.67047 -9.03613,16.34898 -11.38684,19.88398 -43.64365,75.78653 -53.18569,92.17328 l -7.22184,12.4022 -1.90993,0.22941 c -1.05047,0.12618 -32.75746,0.23083 -70.45999,0.23257 l -68.550051,0.003 z m 72.689538,-45.184 c 11.49735,-0.69892 19.35205,-2.69531 29.35158,-7.46013 16.81316,-8.01156 28.05325,-20.81564 33.89791,-38.61462 3.02511,-9.21249 3.85549,-16.48066 3.54155,-30.99862 -0.22523,-10.41571 -0.8573,-15.15514 -3.02792,-22.704222 -3.4746,-12.084093 -7.81905,-19.636876 -15.90989,-27.659189 -5.62173,-5.574121 -11.00273,-9.000106 -19.05204,-12.130073 -8.27652,-3.218323 -14.9221,-4.639352 -24.07377,-5.14771 -6.75417,-0.375185 -54.845974,-1.082547 -55.356681,-0.814221 -0.149981,0.0788 -0.272693,33.047221 -0.272693,73.263155 v 73.11988 l 22.451724,-0.2448 c 12.34845,-0.13464 25.15105,-0.40889 28.45023,-0.60945 z"
   id="path4574"
   inkscape:connector-curvature="0" /><path
   style="opacity:0.78800001;fill:#000000;fill-opacity:0.61352659;stroke:#000000;stroke-width:0.36359072;stroke-opacity:1"
   d="M 67.061975,238.22875 C 48.890864,207.23289 4.080604,129.35148 1.357206,124.03213 l -1.4277546,-2.78869 1.8447428,-3.45411 C 3.8402814,113.92077 14.609072,95.161857 47.066813,38.890937 67.394431,3.6496107 69.279507,0.51418535 70.266918,0.3024435 70.858026,0.17568608 102.70308,0.05261727 141.0337,0.0289573 l 69.69205,-0.04301816 6.7074,11.54400486 c 24.23965,41.7185 62.38491,108.325336 62.65622,109.406336 0.14483,0.57704 -0.26773,1.71194 -1.33126,3.66218 -2.08355,3.8207 -18.77487,32.87043 -40.89903,71.18107 -24.62966,42.64922 -26.65625,46.10467 -27.34836,46.63051 -0.47376,0.35995 -15.17291,0.45449 -70.66462,0.45449 H 69.77967 Z m 56.273155,-44.08468 c 22.17972,-0.4386 26.61746,-0.8938 35.50777,-3.64223 19.15373,-5.92136 33.55009,-17.9536 41.3166,-34.53174 2.05453,-4.38552 4.54594,-11.86038 5.51524,-16.54712 1.89329,-9.1543 1.80091,-29.51483 -0.17728,-39.07663 -2.10839,-10.191101 -6.44792,-20.580807 -11.27826,-27.002404 -2.68284,-3.566654 -8.07938,-9.12756 -11.10676,-11.445054 -6.46304,-4.947535 -17.29355,-9.512773 -27.44355,-11.567918 -6.03613,-1.222178 -13.26915,-1.535378 -42.787,-1.852735 L 89.339396,48.225125 v 73.140925 73.14092 l 8.271688,-0.009 c 4.549426,-0.005 16.125246,-0.1642 25.724046,-0.35401 z"
   id="path4576"
   inkscape:connector-curvature="0" /><path
   style="opacity:0.78800001;fill:#000000;fill-opacity:0.61352659;stroke:#000000;stroke-width:0.36359072;stroke-opacity:1"
   d="M 69.382676,242.18081 C 67.448599,239.42473 7.1884017,134.95222 1.5790776,124.63037 l -1.71602702,-3.1577 1.33896642,-2.65975 C 2.8332504,115.5726 12.344606,98.975789 43.46216,45.071187 56.564566,22.374037 67.681141,3.1058065 68.165665,2.2528969 68.65019,1.3999874 69.347724,0.54100431 69.715744,0.3440457 70.148369,0.1125119 95.190995,-0.01406086 140.56772,-0.01406086 h 70.18284 l 1.88294,3.18141866 c 6.29912,10.6430062 59.42159,102.9884522 64.56756,112.2410222 1.6629,2.98994 3.02346,5.69753 3.02346,6.01686 0,0.77519 -3.53244,7.08323 -19.44446,34.72291 -39.82209,69.17219 -49.60459,85.94874 -50.33879,86.32867 -0.31435,0.16266 -32.03075,0.37691 -70.48089,0.4761 l -69.909329,0.18033 z m 66.132744,-48.41935 c 9.10421,-0.34128 14.40301,-0.93966 19.31261,-2.18094 7.88216,-1.99281 16.78674,-5.9277 23.59109,-10.42478 5.40636,-3.57313 13.28744,-11.34137 16.68677,-16.44787 5.74871,-8.63575 9.80253,-19.36325 11.16273,-29.53961 0.77009,-5.76145 0.75505,-23.96731 -0.0247,-29.84123 -1.44944,-10.919344 -5.37628,-21.949352 -10.63618,-29.875702 -3.21808,-4.84946 -10.6883,-12.405362 -15.09465,-15.267792 -8.62325,-5.601798 -20.75905,-9.707115 -31.72666,-10.732554 -4.33004,-0.404843 -35.8889,-1.094968 -50.425904,-1.102701 l -8.976557,-0.0048 -0.03305,72.828599 c -0.01818,40.05574 0.0945,72.95716 0.250383,73.11429 0.331431,0.33406 32.946118,-0.0388 45.914068,-0.52493 z"
   id="path4578"
   inkscape:connector-curvature="0" /><path
   style="opacity:0.78800001;fill:#000000;fill-opacity:0.61352659;stroke:#000000;stroke-width:0.36359072;stroke-opacity:1"
   d="M 69.663226,242.63123 C 68.216303,240.9676 3.5299658,128.79339 0.78876215,123.19428 l -1.00298002,-2.04866 2.29011527,-4.13238 C 5.111552,111.53557 14.293503,95.536377 39.08587,52.524796 67.536712,3.1662325 68.953996,0.7517216 69.714991,0.34444859 70.154899,0.10901728 94.75032,0.01592374 140.66233,0.07591319 l 70.274,0.0918213 2.87438,4.90847451 c 8.9254,15.241554 54.39645,94.280688 62.18693,108.095151 2.32478,4.12243 4.22688,7.83285 4.22688,8.24539 0,0.91923 -2.90591,6.10603 -22.10637,39.45808 -34.22538,59.45099 -46.76397,81.00383 -47.44155,81.54823 -0.28334,0.22765 -25.69759,0.45136 -70.43451,0.62 -67.937235,0.25609 -70.008452,0.24401 -70.578864,-0.41183 z m 55.126264,-48.68258 c 18.75182,-0.30094 24.30183,-0.83165 32.36011,-3.09437 3.99484,-1.12173 10.22016,-3.5256 13.71554,-5.29618 10.20185,-5.16772 18.96376,-12.93017 24.98856,-22.13814 5.51373,-8.42687 9.62644,-20.28991 10.59109,-30.54978 0.59316,-6.30884 0.24638,-24.99159 -0.54988,-29.62448 C 204.0293,92.390939 200.17896,82.298898 195.00732,74.708509 192.23748,70.643219 184.65208,62.979862 180.99233,60.54948 172.01791,54.589697 159.56007,50.414025 147.8775,49.449899 142.42375,48.999817 90.148083,48.140827 89.793335,48.495462 89.432308,48.856373 89.195508,169.40752 89.528085,183.53098 l 0.259524,11.02125 11.319901,-0.20259 c 6.22594,-0.11143 16.88283,-0.29187 23.68198,-0.40099 z"
   id="path4580"
   inkscape:connector-curvature="0" /><path
   style="opacity:0.78800001;fill:#000000;fill-opacity:0.61352659;stroke:#000000;stroke-width:0.36359072;stroke-opacity:1"
   d="M 69.650152,242.6443 C 68.188546,240.96854 4.5457365,130.68375 1.1772976,123.98967 l -1.36247049,-2.70763 0.94359318,-1.92395 C 1.8003258,117.23369 12.621704,98.31237 34.614566,60.160201 63.294593,10.407452 68.424709,1.6091395 69.22394,0.80401823 l 0.812094,-0.81807909 70.462226,0.00460437 70.46223,0.00460433 9.5118,16.44787516 c 20.65627,35.718946 54.76833,95.145377 58.4176,101.768977 0.73404,1.33233 1.33463,2.78038 1.33463,3.21789 0,1.07677 -4.31119,8.71521 -32.83144,58.16986 -27.29628,47.33225 -35.71248,61.74863 -36.55445,62.61528 -0.56581,0.58239 -5.17393,0.63922 -70.59654,0.87055 -68.399603,0.24185 -70.004866,0.23181 -70.591938,-0.44128 z m 46.231368,-48.67031 c 25.80955,-0.26197 31.38127,-0.64736 39.46953,-2.73007 16.72945,-4.30779 31.21874,-14.11789 39.89999,-27.01463 4.86341,-7.22501 9.01344,-17.88179 10.65139,-27.35145 0.78248,-4.52386 1.10324,-20.62534 0.54795,-27.50623 C 205.4574,97.066952 201.36214,84.442167 195.44063,75.431011 193.10835,71.881831 185.78359,64.247902 182.00967,61.433143 175.03854,56.233763 162.89254,51.556489 152.40316,50.03204 147.9363,49.382864 132.428,48.875298 106.20003,48.519885 L 89.792113,48.297542 89.513196,87.86101 c -0.33158,47.03426 -0.0136,105.93195 0.573851,106.29502 0.215584,0.13324 1.730812,0.19121 3.36717,0.12883 1.636358,-0.0624 11.728643,-0.20228 22.427303,-0.31087 z"
   id="path4582"
   inkscape:connector-curvature="0" /><path
   style="opacity:0.78800001;fill:#000000;fill-opacity:0.61352659;stroke:#000000;stroke-width:0.36359072;stroke-opacity:1"
   d="M 65.271156,235.56008 C 52.076166,213.06627 9.69226,139.50527 3.0513645,127.57217 c -1.7354055,-3.11838 -3.15528273,-5.86361 -3.15528273,-6.10052 0,-1.05092 5.02749963,-9.92065 40.43145423,-71.330892 C 65.195184,7.0063565 69.103333,0.36182456 69.705498,0.19311138 70.224214,0.04777865 193.47175,-0.19289139 205.34241,-0.07175187 l 5.65324,0.05769101 3.96053,6.81732576 C 231.70693,35.636622 277.9322,116.15516 279.44714,119.13831 c 1.38734,2.73189 2.50096,0.35412 -12.15518,25.95341 -27.52108,48.06997 -54.83259,95.10026 -56.20137,96.77851 l -0.85728,1.05111 -70.19784,0.21165 -70.197847,0.21166 z m 61.793614,-41.77912 c 14.57658,-0.37132 19.76861,-0.75474 25.16406,-1.85832 7.83906,-1.60338 18.49789,-5.94759 24.91772,-10.15568 8.83967,-5.79426 16.61455,-14.2421 21.40862,-23.26165 3.30654,-6.22092 6.53579,-16.19049 7.47645,-23.08183 1.05455,-7.72565 0.74509,-26.73239 -0.5489,-33.71268 -1.86425,-10.056517 -6.43258,-21.402532 -11.16502,-27.729734 -2.82695,-3.779584 -8.73921,-9.765741 -12.25377,-12.40693 -6.07102,-4.562358 -16.58657,-8.906307 -26.29994,-10.864439 -3.26047,-0.657285 -6.75017,-1.042331 -11.6349,-1.283773 C 134.4253,48.946282 90.334831,48.288197 90.033232,48.618501 89.764208,48.91313 89.52835,117.84903 89.63578,164.78343 l 0.06721,29.35995 11.90759,-0.009 c 6.54918,-0.005 18.00356,-0.16395 25.45419,-0.35375 z"
   id="path4584"
   inkscape:connector-curvature="0" /><path
   style="opacity:0.78800001;fill:#000000;fill-opacity:0.61352659;stroke:#000000;stroke-width:0.36359072;stroke-opacity:1"
   d="m 67.442109,239.36899 c -6.812661,-11.47968 -42.340058,-72.98952 -56.887678,-98.49165 -9.0375952,-15.843 -10.65834923,-18.8223 -10.65834923,-19.59235 0,-1.0019 5.56623233,-10.79519 44.45440723,-78.213552 C 66.59107,4.5141225 69.034934,0.3779397 69.686605,0.19066572 c 0.310354,-0.0891875 32.060325,-0.27036336 70.555485,-0.40261304 58.55531,-0.20116606 70.08941,-0.16008815 70.59219,0.25140927 0.33053,0.27052479 5.74634,9.40892535 12.03514,20.30755705 31.2644,54.181974 54.83984,95.354511 56.62475,98.890411 l 1.10441,2.18781 -1.14565,2.27244 c -2.5553,5.06857 -60.91197,106.35018 -67.44812,117.06039 -0.57438,0.94118 -1.28975,1.82009 -1.58971,1.95314 -0.29996,0.13304 -32.06309,0.32603 -70.58472,0.42887 l -70.03934,0.18698 z m 56.256611,-45.59028 c 22.05277,-0.4918 27.40548,-1.08715 36.35907,-4.04397 5.62491,-1.85756 15.09385,-6.55848 19.27031,-9.56688 6.23758,-4.49307 12.61129,-11.05359 16.271,-16.7479 4.44571,-6.91729 7.99389,-15.90805 9.90081,-25.08776 1.28316,-6.17695 1.3065,-28.66256 0.0372,-35.81368 -1.71073,-9.637973 -5.54322,-19.869579 -9.94197,-26.542123 -3.49209,-5.297229 -10.25011,-12.165672 -15.43338,-15.685561 -7.46245,-5.067651 -20.79202,-9.546732 -31.19346,-10.4818 -5.59521,-0.502999 -30.58247,-1.093849 -46.44871,-1.098324 l -12.816574,-0.0036 v 72.718148 72.71814 l 9.180666,-0.008 c 5.049368,-0.004 16.216148,-0.1649 24.815068,-0.35667 z"
   id="path4586"
   inkscape:connector-curvature="0" /><path
   style="opacity:0.78800001;fill:#000000;fill-opacity:0.61352659;stroke:#000000;stroke-width:0.36359072;stroke-opacity:1"
   d="M 69.465851,242.81212 C 68.007769,240.98111 3.8434857,129.64213 1.0361059,124.07164 c -0.62701331,-1.24414 -1.14002413,-2.5378 -1.14002413,-2.87481 0,-0.94261 4.10333493,-8.20256 32.64848123,-57.764312 C 64.593674,7.7869817 68.893167,0.46000434 69.672553,0.16092622 70.429632,-0.12959144 208.98106,-0.54263797 210.1161,-0.25776102 c 0.56629,0.1421292 1.27995,0.7917541 1.76289,1.60471592 8.30909,13.9871561 64.57695,111.9689851 67.41487,117.3926451 l 1.35335,2.58643 -1.35136,2.68563 c -2.83014,5.6245 -58.16939,101.69211 -66.73311,115.84708 -0.87509,1.44643 -1.839,2.74217 -2.14204,2.87943 -0.30305,0.13726 -32.05352,0.32097 -70.55663,0.40825 -58.624868,0.13288 -70.069467,0.0785 -70.398219,-0.3343 z m 50.415169,-49.03396 c 19.29845,-0.3927 26.04431,-0.7906 31.61249,-1.86462 7.21771,-1.39218 17.23071,-5.2193 23.37763,-8.93527 7.24861,-4.38198 14.72776,-11.19873 19.27733,-17.57004 4.81371,-6.7412 9.35071,-17.56002 11.20218,-26.71244 0.69514,-3.43627 0.83257,-5.51742 0.97589,-14.77853 0.25497,-16.47543 -0.44265,-22.51922 -3.76972,-32.658728 -1.90094,-5.793218 -4.7584,-11.894266 -7.41378,-15.829375 -2.12147,-3.143886 -9.14863,-10.573567 -12.53872,-13.256947 -6.50564,-5.149451 -18.02591,-9.81067 -28.82082,-11.661194 -5.616,-0.962726 -19.75089,-1.459434 -44.08302,-1.549103 l -19.815698,-0.07302 -0.09325,72.172747 c -0.05129,39.69502 -0.01552,72.37728 0.07949,72.62725 0.213653,0.56213 5.9362,0.57915 30.010008,0.0893 z"
   id="path4588"
   inkscape:connector-curvature="0" /><path
   style="opacity:0.78800001;fill:#000000;fill-opacity:0.61352659;stroke:#000000;stroke-width:0.36359072;stroke-opacity:1"
   d="M 69.061171,242.22825 C 66.492981,238.52732 4.0556675,130.0812 1.0604883,124.11922 l -1.47783731,-2.94167 2.45668231,-4.51194 C 7.7787578,106.12459 63.934364,8.685979 67.939887,2.3180148 L 69.33177,0.10520656 90.666796,-0.1362225 C 102.40106,-0.26900848 134.21548,-0.37765157 161.3655,-0.37765157 h 49.36367 l 0.70693,0.99987445 C 213.35455,3.3356476 277.98927,115.78217 279.95844,119.83213 l 0.72808,1.49742 -1.55185,3.04747 c -3.17253,6.23008 -58.76005,102.75305 -65.82889,114.30622 l -2.4471,3.9995 -8.49348,0.22417 c -4.67141,0.1233 -36.41974,0.24601 -70.55183,0.27269 l -62.058355,0.0485 z m 62.933879,-48.83409 c 11.57587,-0.37989 15.84163,-0.75697 20.92763,-1.84996 6.89108,-1.4809 16.80668,-5.50381 23.1331,-9.38546 6.36604,-3.90595 14.4607,-11.59605 18.61374,-17.68343 5.00717,-7.33933 9.19805,-17.85862 10.84999,-27.23388 1.28105,-7.27044 1.05806,-28.50642 -0.37884,-36.07727 -1.90694,-10.047417 -6.48389,-21.103854 -11.40512,-27.551103 -2.43346,-3.188047 -7.80339,-8.655785 -11.07937,-11.281161 -6.66596,-5.342111 -19.35392,-10.367197 -30.2338,-11.974129 -4.62624,-0.683289 -19.64435,-1.208638 -43.47987,-1.520977 l -18.755712,-0.245772 -0.241904,15.93389 c -0.31312,20.624486 -0.314698,118.168752 -0.0022,124.688452 l 0.23989,5.00191 15.667206,-0.23863 c 8.61696,-0.13124 20.38225,-0.39336 26.14508,-0.58248 z"
   id="path4590"
   inkscape:connector-curvature="0" /><path
   style="opacity:0.78800001;fill:#000000;fill-opacity:0.61352659;stroke:#000000;stroke-width:0.36359072;stroke-opacity:1"
   d="m 72.432428,243.30449 -2.908726,-0.10542 -4.532631,-7.71178 C 49.942237,209.88335 4.7525116,131.29133 1.1294532,124.42194 l -1.5936091,-3.02152 1.27088129,-2.52363 C 3.7415149,113.04908 63.874608,8.5775174 68.106487,1.9542972 l 1.181634,-1.84934424 13.934236,-0.24078595 c 7.663834,-0.13243224 39.473853,-0.24101828 70.688933,-0.24130224 53.59934,-4.8761e-4 56.78545,0.0348588 57.30787,0.6357674 0.88975,1.02343173 28.71221,49.18660183 55.11319,95.40583783 12.80445,22.41629 14.25576,25.04734 14.25576,25.84396 0,0.25903 -1.69254,3.50306 -3.76119,7.20896 -8.35837,14.97365 -54.91218,95.68972 -62.27054,107.9661 l -3.59589,5.99925 -7.45361,0.24757 c -7.32514,0.24331 -125.386399,0.58034 -131.074452,0.37418 z m 56.505742,-49.91523 c 17.92311,-0.51074 22.68189,-1.10435 30.92417,-3.85748 16.28376,-5.43917 29.16972,-15.39533 36.93601,-28.53809 3.32769,-5.63139 6.30918,-13.31962 8.01259,-20.66174 1.68596,-7.26685 2.03245,-25.7173 0.67957,-36.18556 C 204.17394,93.959161 199.31685,81.286548 193.95969,74.061346 190.8354,69.847614 183.89123,63.058848 180.19014,60.599935 172.6226,55.572265 160.36123,51.28797 150.40619,50.193005 145.50716,49.654157 125.82746,49.114846 106.60995,48.9928 L 90.248372,48.888889 89.962303,75.431011 c -0.341964,31.728309 -0.170786,117.609609 0.23573,118.267339 0.312445,0.50553 13.979997,0.39648 38.740137,-0.30909 z"
   id="path4592"
   inkscape:connector-curvature="0" /><path
   style="opacity:0.78800001;fill:#000000;fill-opacity:0.61352659;stroke:#000000;stroke-width:0.36359072;stroke-opacity:1"
   d="M 69.437549,242.86273 C 67.943464,241.11844 7.8501132,137.02828 1.343438,124.91412 l -1.93421636,-3.60113 1.57674182,-2.9435 C 6.1366225,108.75411 64.029327,8.2998079 68.077098,1.954244 l 1.179714,-1.84939761 9.918565,-0.24124898 c 5.455214,-0.13268694 37.272283,-0.24124898 70.704593,-0.24124898 57.43447,0 60.81707,0.0350825 61.3493,0.63628374 C 212.57535,1.7791673 274.13715,108.73388 278.92111,117.86339 l 1.84879,3.52818 -1.44437,2.83466 c -3.70137,7.26414 -64.35118,112.43869 -67.49959,117.05294 l -1.027,1.50515 -7.00924,0.21226 c -3.85509,0.11673 -35.51717,0.30276 -70.36019,0.41339 l -63.350928,0.20114 z m 68.441211,-49.80464 c 11.54653,-0.61031 17.35043,-1.72346 25.40314,-4.87212 8.74431,-3.41909 15.18645,-7.25348 21.35578,-12.71104 3.84012,-3.39709 8.29793,-8.50332 10.80023,-12.37123 3.77955,-5.84219 7.81879,-15.88651 9.52301,-23.68072 1.40305,-6.41685 1.62583,-28.45955 0.36746,-36.35908 -1.60226,-10.058329 -6.42807,-22.275427 -11.41779,-28.905457 -2.84067,-3.774504 -10.47462,-11.298955 -13.6189,-13.423569 -4.75247,-3.211276 -13.33805,-6.855059 -20.58294,-8.735554 -8.12521,-2.108986 -14.56807,-2.501973 -46.09508,-2.811596 L 90.07578,48.956561 89.98028,90.19027 c -0.05252,22.67854 -0.05277,55.28978 -7.27e-4,72.46942 l 0.09495,31.23571 20.447927,-0.23608 c 11.24653,-0.12985 23.5568,-0.4004 27.35633,-0.60123 z"
   id="path4594"
   inkscape:connector-curvature="0" /><path
   style="opacity:0.78800001;fill:#000000;fill-opacity:0.61352659;stroke:#000000;stroke-width:0.36359072;stroke-opacity:1"
   d="M 68.889658,242.27881 C 63.546485,233.77811 3.3246294,129.07351 0.60893899,123.56269 l -1.18636357,-2.40744 1.74917348,-3.22822 C 6.6003748,107.90812 61.212633,13.088752 68.074484,1.7685806 l 1.013182,-1.67147033 6.762653,-0.23635356 c 3.719456,-0.12999444 35.591611,-0.23681586 70.827011,-0.23738092 l 64.06436,-0.001027 0.88549,1.1816698 C 213.33666,3.0852878 268.41673,98.700805 278.6889,117.21892 l 2.20467,3.97447 -1.47368,2.93375 c -2.9356,5.84409 -57.28487,100.26592 -66.27974,115.14882 l -2.11619,3.50146 -4.94021,0.22064 c -2.71712,0.12135 -34.49735,0.32732 -70.62276,0.45771 l -65.682538,0.23706 z m 55.718032,-48.86449 c 23.99513,-0.65659 28.69739,-1.34823 40.1326,-5.90297 9.24957,-3.68418 16.46948,-8.5334 23.52551,-15.80079 6.51536,-6.71053 10.80757,-13.84006 14.07529,-23.37961 3.06941,-8.96063 3.71151,-13.76591 3.70968,-27.76232 -0.002,-15.95484 -0.89399,-21.793143 -4.97931,-32.59374 -3.2994,-8.722846 -6.51459,-13.700767 -13.18162,-20.40851 -7.1548,-7.19847 -12.42832,-10.390313 -23.00417,-13.923459 -5.94682,-1.986692 -10.87319,-3.013199 -16.71429,-3.482766 -6.02279,-0.484172 -31.16223,-1.07989 -45.79472,-1.08518 -10.489835,-0.0038 -11.894331,0.06253 -12.089387,0.570834 -0.302646,0.788679 -0.28111,143.588771 0.02171,143.891581 0.359137,0.35914 19.138957,0.29175 34.298717,-0.12307 z"
   id="path4596"
   inkscape:connector-curvature="0" /><path
   style="opacity:0.78800001;fill:#000000;fill-opacity:0.61352659;stroke:#000000;stroke-width:0.36359072;stroke-opacity:1"
   d="M 69.099832,242.65074 C 66.760678,239.29971 6.3205641,134.44106 0.96265726,124.43832 l -1.59951933,-2.98616 1.1838728,-2.40077 C 3.380666,113.30504 66.683241,3.4371225 68.834694,0.5313252 c 0.535202,-0.72285487 0.960265,-0.72718141 71.442726,-0.72718141 h 70.90432 l 4.29271,7.28065371 C 226.01921,24.969254 275.03278,110.31078 279.10368,117.87486 l 1.90499,3.53965 -2.44311,4.45934 c -5.9441,10.8496 -51.87082,90.61422 -62.56829,108.66738 l -4.87084,8.22007 -2.80991,0.22624 c -1.54544,0.12443 -33.33513,0.33778 -70.64375,0.47411 l -67.833867,0.24788 z m 65.143018,-49.62235 c 14.29022,-0.57911 20.45702,-1.62895 28.85349,-4.91203 10.11656,-3.95565 17.03356,-8.40848 24.23975,-15.60439 5.49325,-5.4854 8.33539,-9.43758 11.44332,-15.91268 4.24781,-8.84992 6.27806,-16.18986 6.93873,-25.08554 0.5544,-7.46474 0.23694,-23.30424 -0.57168,-28.52385 -1.50478,-9.713337 -5.93004,-21.065115 -11.04613,-28.335824 -2.19607,-3.120939 -9.49494,-10.547956 -12.76305,-12.987126 -5.19465,-3.877066 -16.97915,-8.713898 -25.27899,-10.375522 -1.99975,-0.400347 -5.92653,-0.90228 -8.72618,-1.115406 -5.59732,-0.426099 -34.686,-1.089267 -48.210106,-1.099098 l -8.578723,-0.0062 -0.237021,5.181167 C 89.995488,61.045195 89.994972,189.8836 90.305533,192.15067 l 0.239133,1.74465 17.304114,-0.24926 c 9.51727,-0.1371 21.39452,-0.41503 26.39389,-0.61763 z"
   id="path4598"
   inkscape:connector-curvature="0" /><path
   style="opacity:0.78800001;fill:#000000;fill-opacity:0.61352659;stroke:#000000;stroke-width:0.36359072;stroke-opacity:1"
   d="M 69.052031,242.59184 C 66.719952,239.27485 14.241703,148.37487 3.112067,128.3742 l -3.92266143,-7.04927 1.3241899,-2.40409 C 7.6188738,106.02112 52.557142,27.845041 64.701337,7.2577533 l 4.182318,-7.09001881 2.683362,-0.22517045 c 1.475851,-0.12384372 33.477993,-0.24655559 71.115873,-0.27269303 l 68.4325,-0.0475226 2.86783,4.81757689 c 7.32956,12.3127317 54.24791,93.8833637 62.68125,108.9754847 l 4.37423,7.82803 -1.39623,2.72693 c -3.79013,7.40243 -64.96344,113.45981 -68.18071,118.20627 l -0.5895,0.86969 -26.13441,0.22888 c -14.37394,0.12588 -46.12532,0.2486 -70.55863,0.27269 l -44.424205,0.0438 z m 62.645679,-49.56095 c 15.9135,-0.56071 21.95006,-1.47042 30.31047,-4.56779 14.14604,-5.24084 25.40188,-13.85354 32.97829,-25.23419 5.02961,-7.55506 9.2289,-18.78827 10.32652,-27.62364 1.13931,-9.17114 0.74088,-28.06406 -0.74761,-35.45009 -1.61657,-8.021557 -5.8218,-18.48784 -9.79238,-24.371992 -2.35508,-3.49007 -9.75061,-11.158129 -13.4519,-13.947597 -4.72064,-3.557703 -12.09745,-6.947019 -19.87072,-9.129712 -5.16114,-1.449222 -9.15738,-2.113247 -15.24698,-2.533471 -6.75298,-0.466 -55.338414,-1.294136 -55.68348,-0.949121 -0.359955,0.359904 -0.605891,125.231623 -0.268155,136.154233 l 0.26297,8.50471 15.501225,-0.24632 c 8.52566,-0.13547 20.08246,-0.40773 25.68175,-0.60502 z"
   id="path4600"
   inkscape:connector-curvature="0" /><path
   style="opacity:0.78800001;fill:#000000;fill-opacity:0.61352659;stroke:#000000;stroke-width:0.36359072;stroke-opacity:1"
   d="M 65.472175,236.82355 C 53.578214,216.6658 10.30292,141.44894 2.5919073,127.53125 l -3.43611838,-6.20188 1.51219694,-2.7699 C 7.6875176,105.70179 60.071409,14.700315 67.353677,2.7128694 l 1.546144,-2.54513491 1.9481,-0.23673503 c 1.071455,-0.13020427 33.073949,-0.25291614 71.116669,-0.27269303 l 69.16857,-0.035958 0.85999,1.36346515 C 215.61804,6.7328486 274.7009,109.4455 279.50803,118.35712 l 1.58112,2.93112 -2.11967,3.9771 c -4.05025,7.59942 -45.89647,80.39409 -61.17826,106.42423 -3.49445,5.95226 -6.68518,10.99977 -7.0905,11.21669 -0.51873,0.27762 -21.53026,0.45206 -70.95698,0.58909 l -70.220038,0.19469 z M 128.97078,193.0277 c 12.62508,-0.39722 17.86248,-0.81085 23.17354,-1.83017 9.9743,-1.9143 22.18863,-7.65969 30.0925,-14.15494 4.97062,-4.08477 10.49597,-10.23761 13.53938,-15.07699 3.50469,-5.57287 7.51564,-15.90794 8.86258,-22.83632 1.86043,-9.56972 1.62999,-31.35747 -0.42569,-40.246669 -1.58604,-6.858433 -4.77592,-15.177646 -7.80715,-20.361079 C 193.27493,73.16747 186.37966,65.633572 180.93837,61.6214 176.5189,58.362671 167.82652,54.486714 160.50222,52.508864 152.34563,50.306257 146.99279,49.94596 114.8167,49.433799 98.412609,49.172686 90.910577,49.172021 90.650944,49.431617 90.20733,49.875231 90.080986,192.09814 90.523243,193.17888 c 0.262851,0.64232 0.867204,0.66133 13.816447,0.4347 7.44787,-0.13032 18.53186,-0.39398 24.63109,-0.58588 z"
   id="path4602"
   inkscape:connector-curvature="0" /><path
   style="opacity:0.78800001;fill:#000000;fill-opacity:0.61352659;stroke:#000000;stroke-width:0.36359072;stroke-opacity:1"
   d="M 68.844511,242.57643 C 64.330645,235.42315 10.209094,141.47502 0.45184955,123.85546 l -1.37238621,-2.47824 1.01066825,-1.88484 C 5.262124,109.84688 59.634337,15.349364 67.43815,2.443237 c 1.225387,-2.02657046 1.522045,-2.29083596 2.818322,-2.51059022 0.796824,-0.1350838 32.754748,-0.30106642 71.017598,-0.36885031 l 69.56882,-0.12324339 0.67748,0.83662254 C 213.03781,2.1510694 274.05676,108.0888 279.35335,118.04503 l 1.78014,3.34623 -1.61104,3.01661 c -3.13818,5.87611 -25.4831,44.88028 -47.76154,83.37016 -14.32906,24.75593 -19.76769,33.95227 -20.59727,34.82849 -0.58424,0.6171 -2.99889,0.65971 -46.40396,0.81892 -25.1832,0.0924 -56.87494,0.24243 -70.426082,0.33349 l -24.638437,0.16555 z m 49.763939,-49.352 c 26.83448,-0.45573 34.52903,-1.39764 44.90345,-5.49676 12.3443,-4.87745 22.51843,-12.49729 29.80089,-22.31914 5.15829,-6.95698 9.61148,-17.53509 11.4858,-27.28338 0.42974,-2.23509 0.64101,-6.12718 0.78005,-14.37079 0.2069,-12.26697 -0.15479,-18.79563 -1.35741,-24.501788 -1.74327,-8.271474 -6.42896,-19.225062 -10.5878,-24.75079 -3.31642,-4.406425 -10.14942,-11.101519 -13.82879,-13.549684 -7.87547,-5.240156 -19.88476,-9.326789 -30.51611,-10.384296 -5.64325,-0.56134 -33.5774,-1.192872 -47.04166,-1.063514 l -11.634907,0.111783 -0.0918,71.873229 c -0.08714,68.22335 -0.05944,71.88238 0.545386,72.05347 0.35045,0.0991 4.073118,0.11252 8.27259,0.0297 4.199471,-0.0828 12.871111,-0.23941 19.270311,-0.34809 z"
   id="path4604"
   inkscape:connector-curvature="0" /><path
   style="opacity:0.78800001;fill:#000000;fill-opacity:0.61352659;stroke:#000000;stroke-width:0.36359072;stroke-opacity:1"
   d="M 68.482237,242.04645 C 63.934262,234.89672 6.6370448,135.37576 0.60108354,124.14199 l -1.56834266,-2.91891 3.76559722,-6.71625 C 14.94563,92.841156 64.183787,7.467692 67.72487,1.9314771 68.746996,0.33346026 69.126101,0.02911506 70.313796,-0.146908 72.553424,-0.47883326 210.55632,-0.81683169 211.00043,-0.49147949 c 0.54355,0.39818651 6.15836,9.95857209 23.87623,40.65419149 14.75186,25.557115 42.52906,74.106678 45.06908,78.772658 l 1.31662,2.41862 -3.18666,5.76217 c -8.00959,14.4831 -53.00036,92.59485 -62.59972,108.68396 -2.15603,3.61363 -4.17013,6.77778 -4.47577,7.03145 -0.441,0.366 -13.71301,0.5264 -64.28969,0.777 -35.05368,0.17369 -66.721983,0.32276 -70.374008,0.33127 l -6.640046,0.0155 z m 67.033183,-49.35699 c 15.94606,-0.82672 22.49771,-2.25333 32.67768,-7.11553 7.85993,-3.7541 13.24095,-7.51054 18.95909,-13.23517 4.99484,-5.00052 7.95198,-9.12696 11.0816,-15.46343 5.86608,-11.87692 7.45463,-19.50563 7.45463,-35.79941 0,-17.01026 -1.24407,-24.265743 -6.13596,-35.785049 -3.25265,-7.65926 -6.1676,-11.772609 -13.18642,-18.607634 -4.89506,-4.766885 -7.25442,-6.427815 -13.16436,-9.267368 -8.19824,-3.93901 -16.50753,-6.186045 -25.4853,-6.891847 -5.93167,-0.466327 -32.01,-1.087856 -45.68832,-1.0889 l -11.126522,-8.47e-4 -0.233505,2.999624 c -0.330086,4.240282 -0.296396,140.435001 0.03483,140.788711 0.347461,0.37105 35.420587,-0.0462 44.812557,-0.53315 z"
   id="path4606"
   inkscape:connector-curvature="0" /><path
   style="opacity:0.78800001;fill:#000000;fill-opacity:0.61352659;stroke:#000000;stroke-width:0.36359072;stroke-opacity:1"
   d="M 66.665465,239.16142 C 57.842129,224.21648 18.791578,156.49134 7.2691003,136.15066 c -6.67878028,-11.79008 -8.10019994,-14.395 -8.10019994,-14.84454 0,-0.53929 2.87404204,-5.67422 17.02760064,-30.422504 27.529357,-48.13661 51.40746,-89.2602174 52.462353,-90.3522908 0.686405,-0.71059702 1.330339,-0.7322783 28.234735,-0.95066604 40.856171,-0.33163671 113.638501,-0.35195388 114.142131,-0.0318629 0.24136,0.15339696 2.26964,3.38230394 4.5073,7.17534874 9.34426,15.839415 56.56349,98.006985 63.53788,110.564125 l 2.24599,4.04383 -3.47395,6.27016 c -10.7476,19.39844 -61.61741,107.47233 -65.20829,112.89893 l -1.68416,2.54514 -11.08952,0.22385 c -6.09923,0.12311 -37.92251,0.33829 -70.71839,0.47818 l -59.628878,0.25433 z m 55.215295,-46.11429 c 25.78871,-0.67525 31.80446,-1.49802 42.39729,-5.79859 9.34294,-3.79313 16.64543,-8.70584 23.61099,-15.88419 6.61563,-6.81772 10.72511,-13.65147 14.10661,-23.45818 3.06002,-8.87439 3.94255,-16.70053 3.5602,-31.5712 -0.34215,-13.30723 -1.28084,-18.791409 -4.75496,-27.78028 -3.31927,-8.588194 -6.28663,-13.376709 -12.02954,-19.412399 -5.47917,-5.758491 -8.90573,-8.393255 -14.53352,-11.175138 -8.81531,-4.357515 -17.5994,-6.716295 -27.64118,-7.422443 -6.51383,-0.458062 -33.79685,-1.108133 -46.56376,-1.109475 l -9.12219,-9.6e-4 -0.239562,10.089642 c -0.309976,13.055441 -0.311332,123.183293 -0.0015,129.256493 l 0.236429,4.63579 8.57917,-0.004 c 4.718413,-0.002 14.796443,-0.16645 22.395483,-0.36543 z"
   id="path4608"
   inkscape:connector-curvature="0" /></svg>