<?xml version="1.0" encoding="UTF-8" standalone="no"?>
<svg
   xmlns:dc="http://purl.org/dc/elements/1.1/"
   xmlns:cc="http://creativecommons.org/ns#"
   xmlns:rdf="http://www.w3.org/1999/02/22-rdf-syntax-ns#"
   xmlns:svg="http://www.w3.org/2000/svg"
   xmlns="http://www.w3.org/2000/svg"
   xmlns:sodipodi="http://sodipodi.sourceforge.net/DTD/sodipodi-0.dtd"
   xmlns:inkscape="http://www.inkscape.org/namespaces/inkscape"
   inkscape:version="1.0 (4035a4f, 2020-05-01)"
   sodipodi:docname="tritzi-leaves.svg"
   id="svg8"
   version="1.1"
   viewBox="0 0 182.39431 82.855201"
   height="82.855202mm"
   width="182.3943mm">
  <sodipodi:namedview
     inkscape:current-layer="layer3"
     inkscape:window-maximized="0"
     inkscape:window-y="43"
     inkscape:window-x="608"
     inkscape:cy="82.443637"
     inkscape:cx="363.97859"
     inkscape:zoom="1.2316035"
     showgrid="false"
     id="namedview984"
     inkscape:window-height="987"
     inkscape:window-width="1429"
     inkscape:pageshadow="2"
     inkscape:pageopacity="1"
     guidetolerance="10"
     gridtolerance="10"
     objecttolerance="10"
     borderopacity="1"
     bordercolor="#666666"
     pagecolor="#595959" />
  <defs
     id="defs2" />
  <metadata
     id="metadata5">
    <rdf:RDF>
      <cc:Work
         rdf:about="">
        <dc:format>image/svg+xml</dc:format>
        <dc:type
           rdf:resource="http://purl.org/dc/dcmitype/StillImage" />
        <dc:title></dc:title>
      </cc:Work>
    </rdf:RDF>
  </metadata>
  <g
     transform="translate(12.907053,9.5506417)"
     style="display:inline"
     inkscape:label="Leaves"
     id="layer3"
     inkscape:groupmode="layer">
    <path
       sodipodi:nodetypes="csscssc"
       id="path1581"
       d="m 113.96663,30.693587 c 0,0 12.31378,-9.694025 19.78712,-11.375397 5.46395,-1.229293 11.59684,-0.815996 16.9736,1.243268 7.25408,2.778267 18.75991,14.278133 18.75991,14.278133 0,0 -7.97337,10.416533 -13.78485,12.796242 -6.42944,2.632745 -14.34106,3.137057 -21.09184,0.724678 -8.40789,-3.004537 -20.64394,-17.666924 -20.64394,-17.666924 z"
       style="mix-blend-mode:normal;fill:#3a9942;fill-opacity:0.705645;fill-rule:nonzero;stroke:none;stroke-width:0.539585;stroke-linecap:butt;stroke-linejoin:miter;stroke-miterlimit:4;stroke-dasharray:none;stroke-opacity:0.705882" />
    <path
       style="mix-blend-mode:normal;fill:#507553;fill-opacity:0.814516;fill-rule:nonzero;stroke:none;stroke-width:0.539585;stroke-linecap:butt;stroke-linejoin:miter;stroke-miterlimit:4;stroke-dasharray:none;stroke-opacity:0.705882"
       d="m 98.070806,33.855485 c 0,0 15.652334,-3.684662 23.443814,-2.213076 5.69652,1.075916 11.36162,3.86579 15.63843,7.809033 5.77012,5.32006 12.03885,20.017305 12.03885,20.017305 0,0 -11.81784,6.038548 -18.31254,5.840323 -7.18532,-0.219305 -14.91516,-2.902839 -20.35532,-7.701015 -6.77552,-5.975977 -12.453234,-23.75257 -12.453234,-23.75257 z"
       id="path1581-3"
       sodipodi:nodetypes="csscssc" />
    <path
       style="mix-blend-mode:normal;fill:#3a9942;fill-opacity:0.705645;fill-rule:nonzero;stroke:none;stroke-width:0.539585;stroke-linecap:butt;stroke-linejoin:miter;stroke-miterlimit:4;stroke-dasharray:none;stroke-opacity:0.705882"
       d="m 98.819939,17.714504 c 0,0 11.957521,10.785404 15.001061,17.857804 2.2252,5.170786 6.25952,12.643964 5.17125,18.141953 -0.49793,2.515603 -0.9226,6.572463 -0.42691,9.350785 0.96596,5.413959 3.01483,10.239515 3.01483,10.239515 0,0 -9.18186,-3.135514 -16.7502,-6.798466 C 100.50044,64.410669 93.68181,58.932411 92.429329,56.980023 88.621414,51.044196 83.661434,46.928406 84.854204,40.047133 86.339757,31.476702 98.819939,17.714504 98.819939,17.714504 Z"
       id="path1581-6"
       sodipodi:nodetypes="cssscsssc" />
    <path
       sodipodi:nodetypes="csscssc"
       id="path1581-3-5"
       d="m 99.109094,28.784598 c 0,0 -0.03941,15.773811 -3.336974,22.739858 -2.410979,5.093023 -6.514184,9.697029 -11.433525,12.680484 -6.636983,4.025156 -22.690329,6.008351 -22.690329,6.008351 0,0 -3.199608,-12.782258 -1.470634,-18.864511 1.912828,-6.729022 6.397749,-13.312063 12.439352,-17.16536 7.524637,-4.79917 26.49211,-5.398822 26.49211,-5.398822 z"
       style="mix-blend-mode:normal;fill:#507553;fill-opacity:0.814516;fill-rule:nonzero;stroke:none;stroke-width:0.539585;stroke-linecap:butt;stroke-linejoin:miter;stroke-miterlimit:4;stroke-dasharray:none;stroke-opacity:0.705882" />
    <path
       sodipodi:nodetypes="csscssc"
       id="path1581-6-5"
       d="m 77.500368,36.156149 c 0,0 -7.598924,14.454475 -13.81277,19.465072 -4.543076,3.663353 -10.325975,6.169913 -16.042829,6.848222 -7.712907,0.915133 -22.650735,-3.983726 -22.650735,-3.983726 0,0 3.342273,-13.065495 7.76554,-17.921794 4.893625,-5.372712 11.958221,-9.535083 19.069993,-10.541718 8.857506,-1.253743 25.670801,6.133944 25.670801,6.133944 z"
       style="mix-blend-mode:normal;fill:#3a9942;fill-opacity:0.705645;fill-rule:nonzero;stroke:none;stroke-width:0.539585;stroke-linecap:butt;stroke-linejoin:miter;stroke-miterlimit:4;stroke-dasharray:none;stroke-opacity:0.705882" />
    <path
       style="mix-blend-mode:normal;fill:#507553;fill-opacity:0.814516;fill-rule:nonzero;stroke:none;stroke-width:0.547948;stroke-linecap:butt;stroke-linejoin:miter;stroke-miterlimit:4;stroke-dasharray:none;stroke-opacity:0.705882"
       d="m 112.8428,40.653457 c 0,0 1.67263,-16.849511 5.53719,-23.878616 2.82547,-5.139149 7.21283,-9.5432425 12.20992,-12.1132494 6.74189,-3.4673663 28.71438,-6.057181 28.71438,-6.057181 0,0 -6.65615,19.7079084 -8.93426,25.9896994 -2.52035,6.949791 -5.56554,10.259348 -11.72225,13.617856 -7.668,4.182925 -25.80498,2.441491 -25.80498,2.441491 z"
       id="path1581-3-5-8"
       sodipodi:nodetypes="csscssc" />
    <path
       style="mix-blend-mode:normal;fill:#3a9942;fill-opacity:0.705645;fill-rule:nonzero;stroke:none;stroke-width:0.539587;stroke-linecap:butt;stroke-linejoin:miter;stroke-miterlimit:4;stroke-dasharray:none;stroke-opacity:0.705882"
       d="m 42.613575,28.082957 c 0,0 -12.313777,9.694024 -19.787128,11.375397 -5.463936,1.229294 -11.596838,0.815997 -16.9735929,-1.24327 -7.2540783,-2.778266 -18.7599071,-14.278131 -18.7599071,-14.278131 0,0 7.9733703,-10.416533 13.78484314,-12.796245 C 7.3072318,8.5079656 15.218857,8.0036539 21.969633,10.416032 30.37753,13.42057 42.613575,28.082957 42.613575,28.082957 Z"
       id="path1581-1"
       sodipodi:nodetypes="csscssc" />
    <path
       sodipodi:nodetypes="csscssc"
       id="path1581-3-4"
       d="m 57.854752,30.692212 c 0,0 -15.722319,3.782859 -23.548638,2.272054 C 28.584127,31.859679 22.893703,28.995452 18.597764,24.947117 12.801847,19.485274 6.5050923,4.3963368 6.5050923,4.3963368 c 0,0 11.8706637,-6.1994769 18.3944127,-5.9959709 7.217444,0.2251522 14.981854,2.9802039 20.446328,7.906255 6.805819,6.1352381 12.508919,24.3855911 12.508919,24.3855911 z"
       style="mix-blend-mode:normal;fill:#507553;fill-opacity:0.814516;fill-rule:nonzero;stroke:none;stroke-width:0.54795;stroke-linecap:butt;stroke-linejoin:miter;stroke-miterlimit:4;stroke-dasharray:none;stroke-opacity:0.705882" />
    <path
       sodipodi:nodetypes="cssscsssc"
       id="path1581-6-7"
       d="m 57.677035,42.889187 c 0,0 -11.943445,-10.174208 -14.983399,-16.845822 C 40.47106,21.165602 36.441491,14.115917 37.52847,8.9294942 38.025821,6.5564473 38.449996,2.7294868 37.954886,0.10860709 36.990068,-4.9985542 34.9436,-9.5506417 34.9436,-9.5506417 c 0,0 9.171057,2.9578229 16.730477,6.4132003 4.324431,1.9766801 11.135023,7.1444902 12.386031,8.9862394 3.803435,5.599453 8.757568,9.482003 7.566202,15.973323 -1.483798,8.084755 -13.949275,21.067066 -13.949275,21.067066 z"
       style="mix-blend-mode:normal;fill:#3a9942;fill-opacity:0.705645;fill-rule:nonzero;stroke:none;stroke-width:0.523766;stroke-linecap:butt;stroke-linejoin:miter;stroke-miterlimit:4;stroke-dasharray:none;stroke-opacity:0.705882" />
    <path
       style="mix-blend-mode:normal;fill:#507553;fill-opacity:0.814516;fill-rule:nonzero;stroke:none;stroke-width:0.54795;stroke-linecap:butt;stroke-linejoin:miter;stroke-miterlimit:4;stroke-dasharray:none;stroke-opacity:0.705882"
       d="m 56.811822,35.898242 c 0,0 0.03958,-16.194196 3.35189,-23.345889 2.42176,-5.2287617 6.543314,-9.955462 11.48465,-13.01843055 6.666649,-4.13242745 22.791776,-6.16848095 22.791776,-6.16848095 0,0 3.213912,13.1229165 1.477208,19.3672675 -1.921383,6.908357 -6.426346,13.66684 -12.494964,17.622829 -7.558282,4.927071 -26.61056,5.542704 -26.61056,5.542704 z"
       id="path1581-3-5-1"
       sodipodi:nodetypes="csscssc" />
    <path
       style="mix-blend-mode:normal;fill:#3a9942;fill-opacity:0.705645;fill-rule:nonzero;stroke:none;stroke-width:0.54795;stroke-linecap:butt;stroke-linejoin:miter;stroke-miterlimit:4;stroke-dasharray:none;stroke-opacity:0.705882"
       d="m 78.517165,28.330235 c 0,0 7.632901,-14.8397 13.87452,-19.9838308 4.563394,-3.7609854 10.372155,-6.3343431 16.114555,-7.0307328 7.7474,-0.93952291 22.75201,4.0898969 22.75201,4.0898969 0,0 -3.35722,13.4136977 -7.80026,18.3994197 -4.91551,5.5159 -12.01168,9.789201 -19.15526,10.822663 -8.897097,1.287155 -25.785565,-6.297416 -25.785565,-6.297416 z"
       id="path1581-6-5-3"
       sodipodi:nodetypes="csscssc" />
    <path
       sodipodi:nodetypes="csscssc"
       id="path1581-3-5-8-8"
       d="m 42.269182,25.211155 c 0,0 -1.665177,16.41212 -5.51253,23.258756 -2.812893,5.005743 -7.180737,9.295512 -12.155576,11.798804 -6.711886,3.377354 -28.5865755,5.899944 -28.5865755,5.899944 0,0 6.6265312,-19.196314 8.8945098,-25.315037 2.5091149,-6.769384 5.5407527,-9.993029 11.6700507,-13.264353 7.633874,-4.074341 25.690121,-2.378114 25.690121,-2.378114 z"
       style="mix-blend-mode:normal;fill:#507553;fill-opacity:0.814516;fill-rule:nonzero;stroke:none;stroke-width:0.539587;stroke-linecap:butt;stroke-linejoin:miter;stroke-miterlimit:4;stroke-dasharray:none;stroke-opacity:0.705882" />
  </g>
  <g
     transform="translate(12.907053,9.5506417)"
     style="display:inline"
     inkscape:label="Text"
     id="layer2"
     inkscape:groupmode="layer">
    <g
       transform="translate(-14.782036,-102.99926)"
       id="layer1">
      <path
         style="fill:none;stroke:#bfbfbf;stroke-width:3.82884;stroke-linecap:round;stroke-linejoin:miter;stroke-miterlimit:3.99091;stroke-dasharray:none;stroke-opacity:1"
         d="m 107.03957,121.08992 v 29.09103 c 0,0 -0.0174,2.31379 1.23961,3.55479 1.25707,1.241 4.83447,0.97901 4.83447,0.97901"
         id="path14-7-9-6-5-5-0-74" />
      <path
         id="path14-7-9-6-5-5-0-7-8"
         d="M 116.14769,131.34547 H 99.715851 v 0"
         style="fill:none;stroke:#bfbfbf;stroke-width:3.82884;stroke-linecap:round;stroke-linejoin:miter;stroke-miterlimit:3.99091;stroke-dasharray:none;stroke-opacity:1" />
      <path
         id="path14-5-3"
         d="M 25.031224,114.65034 H 68.448623"
         style="fill:none;stroke:#bfbfbf;stroke-width:3.63923;stroke-linecap:round;stroke-linejoin:miter;stroke-miterlimit:4;stroke-dasharray:none;stroke-opacity:1" />
      <path
         id="path14-7-9-4-8"
         d="m 47.081999,115.45991 v 38.90375 0"
         style="fill:none;stroke:#bfbfbf;stroke-width:3.82061;stroke-linecap:round;stroke-linejoin:miter;stroke-miterlimit:4;stroke-dasharray:none;stroke-opacity:1" />
      <path
         style="fill:none;stroke:#ffffff;stroke-width:3.63923;stroke-linecap:round;stroke-linejoin:miter;stroke-miterlimit:4;stroke-dasharray:none;stroke-opacity:1"
         d="m 24.810653,114.27983 h 43.417446 v 0"
         id="path14-7" />
      <path
         style="fill:none;stroke:#ffffff;stroke-width:3.82061;stroke-linecap:round;stroke-linejoin:miter;stroke-miterlimit:4;stroke-dasharray:none;stroke-opacity:1"
         d="m 46.624676,115.21811 v 38.90375 0"
         id="path14-7-9-6" />
      <g
         transform="matrix(0.88080527,0,0,0.86954844,-1.2181826,-7.8842792)"
         id="g954">
        <path
           id="path14-7-9-6-5-0"
           d="m 77.087121,159.15912 v 27.60103 0"
           style="fill:none;stroke:#bfbfbf;stroke-width:4.37502;stroke-linecap:round;stroke-linejoin:miter;stroke-miterlimit:3.99091;stroke-dasharray:none;stroke-opacity:1" />
        <path
           transform="matrix(-0.46427694,0.88569008,-0.81694008,-0.57672255,0,0)"
           id="path1534-5"
           style="fill:none;stroke:#bfbfbf;stroke-width:4.39915;stroke-linecap:round;stroke-linejoin:round;stroke-miterlimit:3.99091;stroke-dasharray:none;stroke-opacity:1;paint-order:markers fill stroke"
           d="m 95.248457,-148.5562 a 12.458397,11.792793 0 0 1 -10.416986,-0.974 12.458397,11.792793 0 0 1 -5.95547,-8.14849" />
      </g>
      <path
         id="path14-7-9-6-5"
         d="m 66.251336,130.29666 v 24.00043 0"
         style="fill:none;stroke:#ffffff;stroke-width:3.82884;stroke-linecap:round;stroke-linejoin:miter;stroke-miterlimit:3.99091;stroke-dasharray:none;stroke-opacity:1" />
      <path
         id="path1534"
         style="fill:none;stroke:#ffffff;stroke-width:3.8332;stroke-linecap:round;stroke-linejoin:round;stroke-miterlimit:3.99091;stroke-dasharray:none;stroke-opacity:1;paint-order:markers fill stroke"
         d="m 66.297787,139.75493 a 11.273589,9.8946824 87.442876 0 1 4.960746,-7.5342 11.273589,9.8946824 87.442876 0 1 8.298792,-0.50023" />
      <path
         id="path14-7-9-6-5-5-8"
         d="m 89.462879,131.14901 v 23.45376 0"
         style="fill:none;stroke:#bfbfbf;stroke-width:3.82884;stroke-linecap:round;stroke-linejoin:miter;stroke-miterlimit:3.99091;stroke-dasharray:none;stroke-opacity:1" />
      <path
         style="fill:none;stroke:#ffffff;stroke-width:3.82884;stroke-linecap:round;stroke-linejoin:miter;stroke-miterlimit:3.99091;stroke-dasharray:none;stroke-opacity:1"
         d="m 88.95976,130.93698 v 23.45375 0"
         id="path14-7-9-6-5-5" />
      <ellipse
         style="fill:#4f989f;fill-opacity:1;stroke:#bfbfbf;stroke-width:1.58404;stroke-linecap:round;stroke-linejoin:round;stroke-miterlimit:3.99091;stroke-dasharray:none;stroke-opacity:1;paint-order:markers fill stroke"
         id="path1554-4"
         cx="89.628059"
         cy="121.35742"
         rx="2.3949049"
         ry="2.1708927" />
      <ellipse
         ry="2.1708927"
         rx="2.3949049"
         cy="121.14503"
         cx="89.124924"
         id="path1554"
         style="fill:#ffffff;fill-opacity:1;stroke:#ffffff;stroke-width:1.58404;stroke-linecap:round;stroke-linejoin:round;stroke-miterlimit:3.99091;stroke-dasharray:none;stroke-opacity:1;paint-order:markers fill stroke" />
      <path
         id="path14-7-9-6-5-5-0"
         d="m 106.57346,121.08992 v 29.09103 c 0,0 -0.0174,2.31379 1.23961,3.55479 1.25707,1.241 4.83447,0.97901 4.83447,0.97901"
         style="fill:none;stroke:#ffffff;stroke-width:3.82884;stroke-linecap:round;stroke-linejoin:miter;stroke-miterlimit:3.99091;stroke-dasharray:none;stroke-opacity:1" />
      <path
         style="fill:none;stroke:#ffffff;stroke-width:3.82884;stroke-linecap:round;stroke-linejoin:miter;stroke-miterlimit:3.99091;stroke-dasharray:none;stroke-opacity:1"
         d="M 115.68157,131.34547 H 99.249738 v 0"
         id="path14-7-9-6-5-5-0-7" />
      <path
         style="fill:none;stroke:#bfbfbf;stroke-width:3.82884;stroke-linecap:round;stroke-linejoin:miter;stroke-miterlimit:3.99091;stroke-dasharray:none;stroke-opacity:1"
         d="m 142.10014,131.6478 -18.43281,22.78778 v 0"
         id="path14-7-9-6-5-5-04-0" />
      <path
         style="fill:none;stroke:#bfbfbf;stroke-width:3.82884;stroke-linecap:round;stroke-linejoin:miter;stroke-miterlimit:3.99091;stroke-dasharray:none;stroke-opacity:1"
         d="m 142.18142,131.57657 -18.47566,-0.0871 v 0"
         id="path14-7-9-6-5-5-04-9-1-9" />
      <path
         id="path14-7-9-6-5-5-04"
         d="m 141.78826,131.465 -18.43283,22.78777 v 0"
         style="fill:none;stroke:#ffffff;stroke-width:3.82884;stroke-linecap:round;stroke-linejoin:miter;stroke-miterlimit:3.99091;stroke-dasharray:none;stroke-opacity:1" />
      <path
         id="path14-7-9-6-5-5-04-9-2"
         d="m 142.14298,154.52271 -18.47565,-0.0871 v 0"
         style="fill:none;stroke:#bfbfbf;stroke-width:3.82884;stroke-linecap:round;stroke-linejoin:miter;stroke-miterlimit:3.99091;stroke-dasharray:none;stroke-opacity:1" />
      <path
         style="fill:none;stroke:#ffffff;stroke-width:3.82884;stroke-linecap:round;stroke-linejoin:miter;stroke-miterlimit:3.99091;stroke-dasharray:none;stroke-opacity:1"
         d="m 141.8311,154.33991 -18.47567,-0.0871 v 0"
         id="path14-7-9-6-5-5-04-9" />
      <path
         id="path14-7-9-6-5-5-04-9-1"
         d="m 141.86954,131.39378 -18.47566,-0.0871 v 0"
         style="fill:none;stroke:#ffffff;stroke-width:3.82884;stroke-linecap:round;stroke-linejoin:miter;stroke-miterlimit:3.99091;stroke-dasharray:none;stroke-opacity:1" />
      <path
         style="fill:none;stroke:#bfbfbf;stroke-width:3.82883;stroke-linecap:round;stroke-linejoin:miter;stroke-miterlimit:3.99091;stroke-dasharray:none;stroke-opacity:1"
         d="m 152.40098,131.14918 v 23.45376 0"
         id="path14-7-9-6-5-5-8-2" />
      <path
         id="path14-7-9-6-5-5-2"
         d="m 151.89787,130.93714 v 23.45377 0"
         style="fill:none;stroke:#ffffff;stroke-width:3.82883;stroke-linecap:round;stroke-linejoin:miter;stroke-miterlimit:3.99091;stroke-dasharray:none;stroke-opacity:1" />
      <ellipse
         ry="2.1708927"
         rx="2.3949049"
         cy="121.35711"
         cx="152.56616"
         id="path1554-4-7"
         style="fill:#4f989f;fill-opacity:1;stroke:#bfbfbf;stroke-width:1.58404;stroke-linecap:round;stroke-linejoin:round;stroke-miterlimit:3.99091;stroke-dasharray:none;stroke-opacity:1;paint-order:markers fill stroke" />
      <ellipse
         style="fill:#ffffff;fill-opacity:1;stroke:#ffffff;stroke-width:1.58404;stroke-linecap:round;stroke-linejoin:round;stroke-miterlimit:3.99091;stroke-dasharray:none;stroke-opacity:1;paint-order:markers fill stroke"
         id="path1554-1"
         cx="152.06302"
         cy="121.14472"
         rx="2.3949049"
         ry="2.1708927" />
    </g>
  </g>
</svg>
